<svg width="48" height="48" viewBox="0 0 48 48" fill="none" xmlns="http://www.w3.org/2000/svg">
<path d="M31.8 31.7999L47 46.9999M16 21.2001V24.6001L8 28.0001M22 21.2001V24.6001L30 28.0001M25.4 13.4C25.2 13.4 25 13.4 24.6 13.4C22.6 13.8 21.2 13 20 11C19.4 12.4 17.2 13.4 15.4 13.4C14.6 13.4 13.4 13.2 12.8 12.8M37 19C37 28.9411 28.9411 37 19 37C9.05887 37 1 28.9411 1 19C1 9.05887 9.05887 1 19 1C28.9411 1 37 9.05887 37 19ZM25.4 14.4002C25.4 18.6002 22.6 22.0002 19 22.0002C15.4 22.0002 12.6 18.6002 12.6 14.4002C12.6 10.2002 15.4 6.8002 19 6.8002C22.6 6.6002 25.4 10.0002 25.4 14.4002Z" stroke="black" stroke-miterlimit="10" stroke-linecap="round" stroke-linejoin="round"/>
</svg>
