<svg width="40" height="40" viewBox="0 0 40 40" fill="none" xmlns="http://www.w3.org/2000/svg">
<path d="M0.833328 38.6668C0.557186 38.6668 0.333328 38.8907 0.333328 39.1668C0.333328 39.443 0.557186 39.6668 0.833328 39.6668V38.6668ZM39.1667 39.6668C39.4428 39.6668 39.6667 39.443 39.6667 39.1668C39.6667 38.8907 39.4428 38.6668 39.1667 38.6668V39.6668ZM2.49999 30.8335V30.3335C2.22385 30.3335 1.99999 30.5574 1.99999 30.8335H2.49999ZM7.49999 30.8335H7.99999C7.99999 30.5574 7.77614 30.3335 7.49999 30.3335V30.8335ZM7.49999 39.1668V39.6668C7.77614 39.6668 7.99999 39.443 7.99999 39.1668H7.49999ZM2.49999 39.1668H1.99999C1.99999 39.443 2.22385 39.6668 2.49999 39.6668V39.1668ZM12.5 22.5002V22.0002C12.2239 22.0002 12 22.224 12 22.5002H12.5ZM17.5 22.5002H18C18 22.224 17.7761 22.0002 17.5 22.0002V22.5002ZM17.5 39.1668V39.6668C17.7761 39.6668 18 39.443 18 39.1668H17.5ZM12.5 39.1668H12C12 39.443 12.2239 39.6668 12.5 39.6668V39.1668ZM22.5 25.8335V25.3335C22.2239 25.3335 22 25.5574 22 25.8335H22.5ZM27.5 25.8335H28C28 25.5574 27.7761 25.3335 27.5 25.3335V25.8335ZM27.5 39.1668V39.6668C27.7761 39.6668 28 39.443 28 39.1668H27.5ZM22.5 39.1668H22C22 39.443 22.2239 39.6668 22.5 39.6668V39.1668ZM32.5 14.1668V13.6668C32.2239 13.6668 32 13.8907 32 14.1668H32.5ZM37.5 14.1668H38C38 13.8907 37.7761 13.6668 37.5 13.6668V14.1668ZM37.5 39.1668V39.6668C37.7761 39.6668 38 39.443 38 39.1668H37.5ZM32.5 39.1668H32C32 39.443 32.2239 39.6668 32.5 39.6668V39.1668ZM6.00652 17.7885C5.79753 17.969 5.77443 18.2847 5.95492 18.4937C6.13541 18.7027 6.45115 18.7258 6.66014 18.5453L6.00652 17.7885ZM13.9935 12.212C14.2025 12.0315 14.2256 11.7157 14.0451 11.5068C13.8646 11.2978 13.5488 11.2747 13.3399 11.4552L13.9935 12.212ZM34.2139 4.1576C34.393 3.94739 34.3678 3.63181 34.1576 3.45274C33.9474 3.27368 33.6318 3.29892 33.4527 3.50913L34.2139 4.1576ZM25.786 12.5091C25.607 12.7193 25.6322 13.0349 25.8424 13.214C26.0526 13.3931 26.3682 13.3678 26.5473 13.1576L25.786 12.5091ZM0.833328 39.6668H39.1667V38.6668H0.833328V39.6668ZM2.49999 31.3335H7.49999V30.3335H2.49999V31.3335ZM6.99999 30.8335V39.1668H7.99999V30.8335H6.99999ZM7.49999 38.6668H2.49999V39.6668H7.49999V38.6668ZM2.99999 39.1668V30.8335H1.99999V39.1668H2.99999ZM12.5 23.0002H17.5V22.0002H12.5V23.0002ZM17 22.5002V39.1668H18V22.5002H17ZM17.5 38.6668H12.5V39.6668H17.5V38.6668ZM13 39.1668V22.5002H12V39.1668H13ZM22.5 26.3335H27.5V25.3335H22.5V26.3335ZM27 25.8335V39.1668H28V25.8335H27ZM27.5 38.6668H22.5V39.6668H27.5V38.6668ZM23 39.1668V25.8335H22V39.1668H23ZM32.5 14.6668H37.5V13.6668H32.5V14.6668ZM37 14.1668V39.1668H38V14.1668H37ZM37.5 38.6668H32.5V39.6668H37.5V38.6668ZM33 39.1668V14.1668H32V39.1668H33ZM6.16666 19.1668C6.16666 19.8112 5.64433 20.3335 5 20.3335V21.3335C6.19661 21.3335 7.16666 20.3634 7.16666 19.1668H6.16666ZM5 20.3335C4.35566 20.3335 3.83333 19.8112 3.83333 19.1668H2.83333C2.83333 20.3634 3.80338 21.3335 5 21.3335V20.3335ZM3.83333 19.1668C3.83333 18.5225 4.35566 18.0002 5 18.0002V17.0002C3.80338 17.0002 2.83333 17.9702 2.83333 19.1668H3.83333ZM5 18.0002C5.64433 18.0002 6.16666 18.5225 6.16666 19.1668H7.16666C7.16666 17.9702 6.19661 17.0002 5 17.0002V18.0002ZM16.1667 10.8335C16.1667 11.4778 15.6443 12.0002 15 12.0002V13.0002C16.1966 13.0002 17.1667 12.0301 17.1667 10.8335H16.1667ZM15 12.0002C14.3557 12.0002 13.8333 11.4778 13.8333 10.8335H12.8333C12.8333 12.0301 13.8034 13.0002 15 13.0002V12.0002ZM13.8333 10.8335C13.8333 10.1892 14.3557 9.66683 15 9.66683V8.66683C13.8034 8.66683 12.8333 9.63688 12.8333 10.8335H13.8333ZM15 9.66683C15.6443 9.66683 16.1667 10.1892 16.1667 10.8335H17.1667C17.1667 9.63688 16.1966 8.66683 15 8.66683V9.66683ZM26.1667 14.1668C26.1667 14.8112 25.6443 15.3335 25 15.3335V16.3335C26.1966 16.3335 27.1667 15.3634 27.1667 14.1668H26.1667ZM25 15.3335C24.3557 15.3335 23.8333 14.8112 23.8333 14.1668H22.8333C22.8333 15.3634 23.8034 16.3335 25 16.3335V15.3335ZM23.8333 14.1668C23.8333 13.5225 24.3557 13.0002 25 13.0002V12.0002C23.8034 12.0002 22.8333 12.9702 22.8333 14.1668H23.8333ZM25 13.0002C25.6443 13.0002 26.1667 13.5225 26.1667 14.1668H27.1667C27.1667 12.9702 26.1966 12.0002 25 12.0002V13.0002ZM36.1667 2.50016C36.1667 3.14449 35.6443 3.66683 35 3.66683V4.66683C36.1966 4.66683 37.1667 3.69678 37.1667 2.50016H36.1667ZM35 3.66683C34.3557 3.66683 33.8333 3.14449 33.8333 2.50016H32.8333C32.8333 3.69678 33.8034 4.66683 35 4.66683V3.66683ZM33.8333 2.50016C33.8333 1.85583 34.3557 1.3335 35 1.3335V0.333496C33.8034 0.333496 32.8333 1.30355 32.8333 2.50016H33.8333ZM35 1.3335C35.6443 1.3335 36.1667 1.85583 36.1667 2.50016H37.1667C37.1667 1.30355 36.1966 0.333496 35 0.333496V1.3335ZM6.66014 18.5453L13.9935 12.212L13.3399 11.4552L6.00652 17.7885L6.66014 18.5453ZM16.3419 11.8077L23.3419 14.141L23.6581 13.1924L16.6581 10.859L16.3419 11.8077ZM33.4527 3.50913L25.786 12.5091L26.5473 13.1576L34.2139 4.1576L33.4527 3.50913Z" fill="black"/>
</svg>
