<svg width="341" height="261" viewBox="0 0 341 261" fill="none" xmlns="http://www.w3.org/2000/svg">
<g style="mix-blend-mode:luminosity">
<path opacity="0.4" d="M234.38 65.6469L230.851 70.1126L211.527 94.5133L207.998 83.4602L115.623 107.639C110.391 108.996 104.863 108.206 100.223 105.443L99.6801 105.122C93.831 101.619 86.5259 101.594 80.6522 105.098L47.2117 125.008L42.4239 111.66L39.9806 104.851L86.2792 85.1625C92.5724 82.4733 99.7788 83.0161 105.628 86.5688C109.601 89.7515 114.562 91.2565 119.547 90.9111C120.682 90.8371 121.817 90.6644 122.953 90.3683L201.631 71.0254L196.571 59.6763L234.38 65.6469Z" fill="#6457A4"/>
<path opacity="0.4" d="M309.917 4.30652L306.971 35.2924L297.998 27.936L233.627 98.4633C229.974 102.447 224.906 104.791 219.509 104.996L218.879 105.022C212.066 105.263 205.922 109.215 202.898 115.349L185.663 150.244L174.386 141.646L202.099 99.5496C205.926 93.7472 212.324 90.2775 219.334 90.2034C224.521 90.8109 229.618 89.4187 233.635 86.4042C234.568 85.7113 235.413 84.9283 236.218 84.0832L291.985 24.0124L281.176 16.8171L309.917 4.30652Z" fill="white"/>
<path opacity="0.5" d="M150.223 244.494C150.223 244.494 151.334 239.313 145.559 238.795C145.559 238.795 144.547 243.113 150.223 244.494Z" fill="#6457A4"/>
<path d="M150.47 246.419C150.47 246.419 154.863 247.357 155.283 242.447C155.283 242.422 151.605 241.583 150.47 246.419Z" fill="#6457A4"/>
<path d="M150.149 243.804C150.149 243.804 151.383 250.194 150.421 253.376" stroke="#6457A4" stroke-miterlimit="10" stroke-linecap="round" stroke-linejoin="round"/>
<path d="M206.443 236.278C206.443 236.278 201.236 235.291 203.013 229.74C203.013 229.74 207.381 230.505 206.443 236.278Z" fill="#6457A4"/>
<path opacity="0.5" d="M207.06 230.012C207.258 229.79 206.69 228.507 206.591 228.235C205.703 225.423 206.517 221.623 209.034 219.847C209.133 221.006 209.207 222.117 209.479 223.251C209.923 225.028 209.725 226.015 208.738 227.495C208.195 228.383 207.776 229.222 207.06 230.012Z" fill="#6457A4"/>
<path opacity="0.5" d="M206.369 241.584C206.369 241.584 205.258 236.402 211.033 235.884C211.033 235.884 212.07 240.202 206.369 241.584Z" fill="#6457A4"/>
<path d="M206.32 246.369C206.32 246.369 201.927 247.307 201.507 242.397C201.482 242.372 205.16 241.534 206.32 246.369Z" fill="#6457A4"/>
<path d="M208.368 221.623C208.368 221.623 205.431 234.847 206.394 253.327" stroke="#6457A4" stroke-miterlimit="10" stroke-linecap="round" stroke-linejoin="round"/>
<path d="M263.699 202.995C263.699 202.995 265.896 198.16 260.343 196.433C260.343 196.433 258.442 200.43 263.699 202.995Z" fill="#6457A4"/>
<path opacity="0.5" d="M264.933 212.988C264.884 212.766 265.797 212.125 265.945 211.977C267.648 210.447 268.635 207.561 267.648 205.365C267.105 206.105 266.636 206.82 265.97 207.487C264.958 208.498 264.686 209.238 264.76 210.645C264.834 211.434 264.76 212.174 264.933 212.988Z" fill="#6457A4"/>
<path opacity="0.5" d="M266.069 240.547C266.069 240.547 267.179 235.366 261.404 234.848C261.404 234.848 260.392 239.166 266.069 240.547Z" fill="#6457A4"/>
<path d="M265.896 222.289C265.896 222.289 265.772 216.985 260.022 217.848C259.997 217.873 260.047 222.314 265.896 222.289Z" fill="#6457A4"/>
<path d="M266.216 232.257C266.216 232.257 271.424 231.245 269.622 225.719C269.647 225.719 265.279 226.484 266.216 232.257Z" fill="#6457A4"/>
<path d="M266.142 245.062C266.142 245.062 270.535 246 270.955 241.09C270.955 241.09 267.278 240.251 266.142 245.062Z" fill="#6457A4"/>
<path d="M263.304 201.664C263.304 201.664 268.092 222.931 265.624 253.327" stroke="#6457A4" stroke-miterlimit="10" stroke-linecap="round" stroke-linejoin="round"/>
<path d="M331.864 202.995C331.864 202.995 329.667 198.16 335.22 196.433C335.195 196.433 337.12 200.43 331.864 202.995Z" fill="#6457A4"/>
<path opacity="0.5" d="M330.63 212.988C330.679 212.766 329.766 212.125 329.618 211.977C327.915 210.447 326.928 207.561 327.915 205.365C328.458 206.105 328.927 206.82 329.593 207.487C330.605 208.498 332.086 209.238 332.012 210.645C331.938 211.434 330.778 212.174 330.63 212.988Z" fill="#6457A4"/>
<path opacity="0.5" d="M333.641 192.042C333.69 191.82 332.777 191.179 332.629 191.031C330.926 189.501 329.939 186.614 330.926 184.418C331.469 185.159 331.938 185.874 332.604 186.54C333.616 187.552 333.887 188.292 333.813 189.698C333.739 190.512 333.813 191.253 333.641 192.042Z" fill="#6457A4"/>
<path opacity="0.5" d="M329.494 240.547C329.494 240.547 328.384 235.366 334.159 234.848C334.159 234.848 335.171 239.166 329.494 240.547Z" fill="#6457A4"/>
<path d="M329.865 222.289C329.865 222.289 329.988 216.985 335.738 217.848C335.738 217.873 336.257 222.314 329.865 222.289Z" fill="#6457A4"/>
<path d="M334.702 182.79C334.702 182.79 333.344 177.658 339.095 176.869C339.095 176.893 340.822 180.989 334.702 182.79Z" fill="#6457A4"/>
<path d="M329.322 232.257C329.322 232.257 324.114 231.245 325.916 225.719C325.916 225.719 330.284 226.484 329.322 232.257Z" fill="#6457A4"/>
<path d="M329.42 245.062C329.42 245.062 325.028 246 324.608 241.09C324.583 241.09 328.261 240.251 329.42 245.062Z" fill="#6457A4"/>
<path opacity="0.5" d="M336.528 170.256C336.528 170.256 334.455 165.544 339.86 163.94C339.86 163.94 341.661 167.838 336.528 170.256Z" fill="#6457A4"/>
<path d="M336.948 169.097C336.948 169.097 327.446 222.956 329.914 253.327" stroke="#6457A4" stroke-miterlimit="10" stroke-linecap="round" stroke-linejoin="round"/>
<path opacity="0.2" d="M137.217 210.595H105.726V253.377H137.217V210.595Z" fill="#6457A4"/>
<path opacity="0.5" d="M113.303 205.463L105.726 210.595H137.193L144.769 205.463H113.303Z" fill="#6457A4"/>
<path d="M137.193 253.376L144.769 248.244V205.463L137.193 210.595V253.376Z" fill="#4E4688"/>
<path opacity="0.2" d="M189.488 191.154H157.997V253.377H189.488V191.154Z" fill="#6457A4"/>
<path opacity="0.5" d="M165.574 186.318L157.997 191.154H189.464L197.04 186.318H165.574Z" fill="#6457A4"/>
<path d="M189.464 253.377L197.04 246.468V188.736V186.318L189.464 191.154V253.377Z" fill="#4E4688"/>
<path opacity="0.2" d="M249.533 161.917H218.042V253.253H249.533V161.917Z" fill="#6457A4"/>
<path opacity="0.5" d="M225.619 157.057L218.042 161.917H249.533L257.11 157.057H225.619Z" fill="#6457A4"/>
<path d="M249.533 253.376L257.11 246.468V159.499V157.057L249.533 161.917V253.376Z" fill="#4E4688"/>
<path opacity="0.2" d="M308.838 126.438H277.347V253.376H308.838V126.438Z" fill="#6457A4"/>
<path d="M284.924 121.603L277.347 126.439H308.813L316.39 121.603H284.924Z" fill="#4E4688"/>
<path d="M308.813 253.377L316.39 246.468V124.021V121.603L308.813 126.439V253.377Z" fill="#4E4688"/>
<path d="M292.747 199.517C297.695 199.517 301.705 195.508 301.705 190.561C301.705 185.615 297.695 181.605 292.747 181.605C287.799 181.605 283.788 185.615 283.788 190.561C283.788 195.508 287.799 199.517 292.747 199.517Z" fill="#FCB713"/>
<path d="M292.327 195.816C291.932 195.792 291.587 195.718 291.291 195.644C290.995 195.545 290.723 195.446 290.501 195.323C290.279 195.2 290.081 195.101 289.958 194.978C289.81 194.854 289.711 194.78 289.637 194.731C289.563 194.657 289.514 194.607 289.514 194.558C289.489 194.509 289.514 194.41 289.588 194.311L290.131 193.448C290.18 193.349 290.254 193.3 290.353 193.3C290.452 193.3 290.55 193.349 290.698 193.473C290.921 193.645 291.167 193.818 291.464 193.966C291.76 194.114 292.056 194.213 292.352 194.262V191.499C292.031 191.375 291.686 191.203 291.365 191.055C291.044 190.882 290.723 190.685 290.452 190.438C290.18 190.191 289.958 189.895 289.785 189.574C289.613 189.229 289.539 188.834 289.539 188.365C289.539 188.02 289.588 187.699 289.711 187.403C289.81 187.107 289.983 186.811 290.23 186.589C290.452 186.342 290.748 186.145 291.118 185.997C291.464 185.824 291.883 185.726 292.377 185.701V185.257C292.377 185.183 292.401 185.109 292.451 185.059C292.5 185.01 292.574 184.985 292.648 184.985H292.821C292.895 184.985 292.969 185.01 293.018 185.059C293.068 185.109 293.092 185.183 293.092 185.257V185.726C293.413 185.75 293.709 185.8 293.981 185.898C294.252 185.972 294.499 186.071 294.721 186.17C294.943 186.268 295.116 186.367 295.264 186.466C295.412 186.564 295.511 186.614 295.585 186.663C295.659 186.712 295.708 186.786 295.708 186.885C295.733 186.984 295.708 187.058 295.659 187.132L295.091 187.946C294.968 188.119 294.845 188.143 294.697 188.069C294.499 187.946 294.252 187.798 293.981 187.65C293.709 187.502 293.413 187.379 293.068 187.305V189.895C293.389 190.018 293.709 190.191 294.055 190.364C294.4 190.537 294.721 190.759 295.017 191.005C295.314 191.252 295.536 191.573 295.733 191.918C295.931 192.264 296.029 192.658 296.029 193.127C296.029 193.892 295.782 194.558 295.264 195.076C294.746 195.594 294.03 195.89 293.068 195.94V197.42C293.068 197.494 293.043 197.568 292.994 197.593C292.944 197.642 292.87 197.667 292.796 197.667C292.722 197.667 292.623 197.667 292.5 197.642C292.401 197.617 292.352 197.543 292.352 197.42V195.816H292.327ZM292.327 187.181C291.957 187.231 291.686 187.354 291.513 187.527C291.34 187.724 291.241 187.946 291.241 188.217C291.241 188.513 291.34 188.736 291.513 188.933C291.686 189.106 291.957 189.303 292.327 189.5V187.181ZM293.043 194.262C293.364 194.213 293.635 194.114 293.833 193.941C294.03 193.769 294.129 193.522 294.129 193.201C294.129 192.93 294.055 192.658 293.882 192.412C293.709 192.165 293.438 191.943 293.043 191.745V194.262Z" fill="#F6F7F7"/>
<path opacity="0.9" d="M242.475 189.821C242.475 195.101 239.612 199.369 236.083 199.369C235.96 199.369 235.836 199.369 235.688 199.344H232.875C233.418 199.344 233.936 199.246 234.454 199.048C235.17 198.777 235.836 198.333 236.429 197.716C238.131 196.014 239.242 193.102 239.242 189.796C239.242 186.49 238.131 183.603 236.429 181.876C235.836 181.284 235.17 180.84 234.454 180.544C233.936 180.347 233.418 180.248 232.85 180.248H236.034C236.157 180.248 236.28 180.248 236.404 180.273C239.81 180.569 242.475 184.738 242.475 189.821Z" fill="#F37C20"/>
<path d="M239.291 189.822C239.291 193.128 238.181 196.014 236.478 197.741C235.886 198.333 235.219 198.802 234.504 199.074C234.01 199.271 233.467 199.37 232.924 199.37C232.825 199.37 232.727 199.37 232.628 199.37C229.247 199.148 226.532 194.953 226.532 189.846C226.532 184.739 229.222 180.545 232.628 180.323C232.727 180.323 232.825 180.323 232.924 180.323C233.467 180.323 234.01 180.421 234.528 180.619C235.244 180.89 235.91 181.334 236.503 181.951C238.156 183.604 239.291 186.515 239.291 189.822Z" fill="#FCB713"/>
<path d="M232.603 195.397C232.332 195.373 232.085 195.299 231.863 195.2C231.641 195.101 231.468 194.978 231.295 194.879C231.122 194.781 230.999 194.633 230.9 194.509C230.802 194.386 230.728 194.287 230.678 194.238C230.629 194.164 230.604 194.09 230.58 194.04C230.555 193.991 230.58 193.892 230.629 193.794L231.024 192.881C231.073 192.782 231.122 192.733 231.172 192.733C231.246 192.733 231.32 192.782 231.419 192.93C231.567 193.128 231.764 193.3 231.962 193.448C232.159 193.596 232.381 193.695 232.603 193.744V190.784C232.356 190.636 232.134 190.488 231.888 190.29C231.641 190.118 231.443 189.896 231.246 189.624C231.048 189.377 230.9 189.057 230.777 188.711C230.654 188.366 230.604 187.922 230.604 187.428C230.604 187.058 230.654 186.713 230.728 186.392C230.802 186.071 230.925 185.775 231.098 185.504C231.271 185.257 231.468 185.035 231.715 184.862C231.962 184.69 232.258 184.591 232.603 184.542V184.048C232.603 183.974 232.628 183.9 232.653 183.851C232.702 183.802 232.727 183.777 232.801 183.777H232.924C232.973 183.777 233.023 183.802 233.072 183.851C233.097 183.9 233.121 183.974 233.121 184.048V184.542C233.344 184.566 233.566 184.64 233.763 184.714C233.961 184.788 234.133 184.887 234.306 185.01C234.454 185.109 234.602 185.208 234.701 185.307C234.8 185.405 234.874 185.479 234.923 185.529C234.972 185.578 234.997 185.652 235.022 185.751C235.022 185.849 235.022 185.948 234.997 186.022L234.602 186.91C234.504 187.083 234.429 187.132 234.331 187.034C234.183 186.886 234.01 186.738 233.812 186.589C233.615 186.417 233.393 186.318 233.171 186.219V188.983C233.393 189.131 233.64 189.279 233.887 189.476C234.133 189.673 234.355 189.896 234.553 190.167C234.75 190.438 234.923 190.759 235.071 191.129C235.219 191.499 235.269 191.919 235.269 192.412C235.269 193.251 235.096 193.917 234.726 194.485C234.355 195.027 233.837 195.348 233.171 195.397V196.976C233.171 197.05 233.146 197.124 233.121 197.174C233.072 197.223 233.023 197.248 232.973 197.248C232.924 197.248 232.85 197.223 232.776 197.198C232.702 197.174 232.653 197.1 232.653 196.976V195.397H232.603ZM232.603 186.219C232.356 186.269 232.159 186.392 232.036 186.589C231.912 186.787 231.838 187.034 231.838 187.33C231.838 187.626 231.912 187.872 232.036 188.07C232.159 188.267 232.356 188.465 232.603 188.662V186.219ZM233.121 193.769C233.344 193.72 233.541 193.621 233.689 193.448C233.837 193.276 233.911 193.004 233.911 192.659C233.911 192.363 233.862 192.091 233.738 191.82C233.615 191.549 233.418 191.327 233.146 191.104V193.769H233.121Z" fill="#F6F7F7"/>
<path opacity="0.9" d="M300.348 229.001C300.348 234.28 297.485 238.549 293.956 238.549C293.833 238.549 293.709 238.549 293.561 238.524H290.748C291.291 238.524 291.809 238.425 292.327 238.228C293.043 237.956 293.709 237.512 294.302 236.896C296.005 235.193 297.115 232.282 297.115 228.976C297.115 225.67 296.005 222.783 294.302 221.056C293.709 220.464 293.043 220.02 292.327 219.724C291.809 219.526 291.291 219.428 290.723 219.428H293.907C294.03 219.428 294.154 219.428 294.277 219.452C297.683 219.748 300.348 223.918 300.348 229.001Z" fill="#F37C20"/>
<path d="M297.164 229.001C297.164 232.307 296.054 235.194 294.351 236.921C293.759 237.513 293.092 237.982 292.377 238.253C291.883 238.451 291.34 238.549 290.797 238.549C290.698 238.549 290.6 238.549 290.501 238.549C287.12 238.327 284.405 234.133 284.405 229.026C284.405 223.919 287.095 219.724 290.501 219.502C290.6 219.502 290.698 219.502 290.797 219.502C291.34 219.502 291.883 219.601 292.401 219.799C293.117 220.07 293.783 220.514 294.376 221.131C296.054 222.784 297.164 225.695 297.164 229.001Z" fill="#FCB713"/>
<path d="M290.476 234.577C290.205 234.552 289.958 234.478 289.736 234.38C289.514 234.281 289.341 234.158 289.168 234.059C288.996 233.936 288.872 233.812 288.774 233.689C288.675 233.566 288.601 233.467 288.551 233.418C288.502 233.343 288.477 233.269 288.453 233.22C288.428 233.171 288.453 233.072 288.502 232.973L288.897 232.061C288.946 231.962 288.996 231.913 289.045 231.913C289.119 231.913 289.193 231.962 289.292 232.11C289.44 232.307 289.637 232.48 289.835 232.628C290.032 232.776 290.254 232.875 290.476 232.924V229.963C290.23 229.815 290.008 229.667 289.761 229.47C289.514 229.297 289.317 229.075 289.119 228.804C288.922 228.557 288.774 228.236 288.65 227.891C288.527 227.546 288.477 227.101 288.477 226.608C288.477 226.238 288.527 225.893 288.601 225.572C288.675 225.251 288.798 224.955 288.971 224.684C289.144 224.437 289.341 224.215 289.588 224.042C289.835 223.869 290.131 223.771 290.476 223.721V223.228C290.476 223.154 290.501 223.08 290.526 223.031C290.575 222.981 290.6 222.957 290.674 222.957H290.797C290.847 222.957 290.896 222.981 290.945 223.031C290.97 223.08 290.995 223.154 290.995 223.228V223.721C291.217 223.746 291.439 223.82 291.636 223.894C291.834 223.968 292.007 224.067 292.179 224.19C292.352 224.314 292.475 224.388 292.574 224.486C292.673 224.585 292.747 224.659 292.796 224.708C292.846 224.758 292.87 224.832 292.895 224.93C292.895 225.029 292.895 225.128 292.87 225.202L292.475 226.09C292.377 226.263 292.303 226.312 292.204 226.213C292.056 226.065 291.883 225.917 291.686 225.769C291.488 225.596 291.266 225.498 291.044 225.399V228.162C291.266 228.31 291.513 228.458 291.76 228.656C292.007 228.853 292.229 229.075 292.426 229.347C292.624 229.618 292.796 229.939 292.944 230.309C293.092 230.679 293.142 231.098 293.142 231.592C293.142 232.431 292.969 233.097 292.599 233.664C292.229 234.207 291.71 234.528 291.044 234.577V236.156C291.044 236.23 291.019 236.304 290.995 236.353C290.945 236.403 290.896 236.428 290.847 236.428C290.797 236.428 290.723 236.403 290.649 236.378C290.575 236.353 290.526 236.279 290.526 236.156V234.577H290.476ZM290.476 225.399C290.23 225.448 290.032 225.572 289.909 225.769C289.785 225.967 289.711 226.213 289.711 226.509C289.711 226.805 289.785 227.052 289.909 227.249C290.032 227.447 290.23 227.644 290.476 227.842V225.399ZM290.995 232.924C291.217 232.875 291.414 232.776 291.562 232.603C291.71 232.431 291.784 232.159 291.784 231.814C291.784 231.518 291.735 231.246 291.612 230.975C291.488 230.704 291.291 230.482 291.019 230.259V232.924H290.995Z" fill="#F6F7F7"/>
<path opacity="0.9" d="M179.691 221.624C179.691 227.249 178.16 231.813 176.285 231.813H173.126C173.694 231.813 174.261 231.418 174.73 230.703C175.396 229.741 175.939 228.211 176.285 226.336C176.532 224.93 176.68 223.326 176.68 221.624C176.68 219.921 176.532 218.318 176.285 216.911C175.939 215.036 175.396 213.507 174.73 212.544C174.261 211.854 173.694 211.434 173.126 211.434H176.285C178.16 211.434 179.691 215.998 179.691 221.624Z" fill="#F37C20"/>
<path d="M176.68 221.624C176.68 223.326 176.532 224.93 176.285 226.336C175.939 228.211 175.396 229.741 174.73 230.703C174.261 231.394 173.694 231.813 173.126 231.813H173.101C171.127 231.813 169.523 227.249 169.523 221.624C169.523 215.998 171.127 211.434 173.101 211.434H173.126C173.694 211.434 174.261 211.829 174.73 212.544C175.396 213.507 175.939 215.036 176.285 216.911C176.532 218.318 176.68 219.921 176.68 221.624Z" fill="#FCB713"/>
<path d="M172.928 227.595C172.78 227.57 172.632 227.496 172.509 227.373C172.386 227.274 172.287 227.151 172.188 227.027C172.089 226.904 172.015 226.781 171.966 226.633C171.917 226.509 171.867 226.411 171.843 226.337C171.818 226.263 171.793 226.189 171.793 226.115C171.793 226.041 171.793 225.967 171.818 225.843L172.04 224.881C172.065 224.782 172.089 224.708 172.139 224.708C172.163 224.708 172.213 224.782 172.287 224.906C172.386 225.103 172.484 225.3 172.583 225.448C172.706 225.621 172.805 225.72 172.928 225.769V222.611C172.805 222.463 172.657 222.29 172.534 222.093C172.41 221.896 172.287 221.674 172.163 221.402C172.065 221.131 171.966 220.81 171.892 220.415C171.818 220.045 171.793 219.576 171.793 219.034C171.793 218.639 171.818 218.269 171.867 217.923C171.917 217.578 171.991 217.257 172.065 216.986C172.163 216.715 172.262 216.492 172.41 216.295C172.558 216.122 172.731 215.999 172.904 215.95V215.432C172.904 215.358 172.904 215.284 172.928 215.21C172.953 215.16 172.978 215.111 173.003 215.111H173.077C173.101 215.111 173.126 215.136 173.151 215.21C173.175 215.259 173.175 215.333 173.175 215.432V215.974C173.299 215.999 173.422 216.073 173.521 216.172C173.644 216.27 173.743 216.369 173.817 216.468C173.916 216.591 173.965 216.69 174.039 216.789C174.088 216.887 174.138 216.961 174.162 217.011C174.187 217.06 174.212 217.134 174.212 217.257C174.212 217.356 174.212 217.455 174.187 217.553L173.965 218.491C173.916 218.688 173.866 218.738 173.817 218.614C173.743 218.466 173.644 218.294 173.545 218.121C173.447 217.948 173.323 217.825 173.175 217.726V220.687C173.299 220.835 173.422 221.007 173.57 221.205C173.718 221.402 173.842 221.649 173.94 221.945C174.064 222.241 174.162 222.586 174.237 222.981C174.311 223.376 174.36 223.845 174.36 224.363C174.36 225.251 174.261 225.991 174.064 226.559C173.866 227.151 173.57 227.472 173.2 227.546V229.223C173.2 229.297 173.2 229.371 173.175 229.445C173.151 229.495 173.126 229.519 173.101 229.519C173.077 229.519 173.027 229.495 172.978 229.47C172.928 229.445 172.904 229.371 172.904 229.223V227.595H172.928ZM172.928 217.8C172.78 217.849 172.682 217.997 172.608 218.195C172.534 218.417 172.509 218.664 172.509 218.984C172.509 219.305 172.534 219.576 172.608 219.774C172.682 219.996 172.78 220.193 172.928 220.415V217.8ZM173.225 225.843C173.348 225.794 173.447 225.67 173.545 225.498C173.62 225.3 173.669 225.029 173.669 224.659C173.669 224.338 173.644 224.042 173.57 223.771C173.496 223.499 173.397 223.228 173.225 223.006V225.843Z" fill="#F6F7F7"/>
<path opacity="0.9" d="M238.255 228.334C238.255 233.959 236.725 238.524 234.849 238.524H231.69C232.258 238.524 232.825 238.129 233.294 237.413C233.96 236.451 234.503 234.922 234.849 233.046C235.096 231.64 235.244 230.036 235.244 228.334C235.244 226.632 235.096 225.028 234.849 223.622C234.503 221.747 233.96 220.217 233.294 219.255C232.825 218.564 232.258 218.145 231.69 218.145H234.849C236.749 218.145 238.255 222.709 238.255 228.334Z" fill="#F37C20"/>
<path d="M235.269 228.334C235.269 230.036 235.121 231.64 234.874 233.046C234.528 234.922 233.985 236.451 233.319 237.413C232.85 238.104 232.282 238.524 231.715 238.524H231.69C229.716 238.524 228.112 233.959 228.112 228.334C228.112 222.709 229.716 218.145 231.69 218.145H231.715C232.282 218.145 232.85 218.539 233.319 219.255C233.985 220.217 234.528 221.747 234.874 223.622C235.121 225.028 235.269 226.632 235.269 228.334Z" fill="#FCB713"/>
<path d="M231.517 234.305C231.369 234.28 231.221 234.206 231.098 234.083C230.974 233.984 230.876 233.861 230.777 233.737C230.678 233.614 230.604 233.491 230.555 233.343C230.505 233.219 230.456 233.121 230.431 233.047C230.407 232.973 230.382 232.899 230.382 232.825C230.382 232.751 230.382 232.677 230.407 232.553L230.629 231.591C230.654 231.492 230.678 231.418 230.728 231.418C230.752 231.418 230.802 231.492 230.876 231.616C230.974 231.813 231.073 232.01 231.172 232.158C231.295 232.331 231.394 232.43 231.517 232.479V229.321C231.394 229.173 231.246 229 231.122 228.803C230.999 228.606 230.876 228.384 230.752 228.112C230.654 227.841 230.555 227.52 230.481 227.125C230.407 226.755 230.382 226.286 230.382 225.744C230.382 225.349 230.407 224.979 230.456 224.633C230.505 224.288 230.579 223.967 230.654 223.696C230.752 223.424 230.851 223.202 230.999 223.005C231.147 222.832 231.32 222.709 231.493 222.66V222.142C231.493 222.068 231.493 221.993 231.517 221.919C231.542 221.87 231.567 221.821 231.591 221.821H231.665C231.69 221.821 231.715 221.845 231.739 221.919C231.764 221.969 231.764 222.043 231.764 222.142V222.684C231.887 222.709 232.011 222.783 232.11 222.882C232.233 222.98 232.332 223.079 232.406 223.178C232.504 223.301 232.554 223.4 232.628 223.499C232.677 223.597 232.727 223.671 232.751 223.721C232.776 223.77 232.801 223.844 232.801 223.967C232.801 224.066 232.801 224.165 232.776 224.263L232.554 225.201C232.504 225.398 232.455 225.448 232.406 225.324C232.332 225.176 232.233 225.004 232.134 224.831C232.036 224.658 231.912 224.535 231.764 224.436V227.397C231.887 227.545 232.011 227.717 232.159 227.915C232.307 228.112 232.43 228.359 232.529 228.655C232.653 228.951 232.751 229.296 232.825 229.691C232.899 230.086 232.949 230.555 232.949 231.073C232.949 231.961 232.85 232.701 232.653 233.269C232.455 233.861 232.159 234.182 231.789 234.256V235.933C231.789 236.007 231.789 236.081 231.764 236.155C231.739 236.205 231.715 236.229 231.69 236.229C231.665 236.229 231.616 236.205 231.567 236.18C231.517 236.155 231.493 236.081 231.493 235.933V234.305H231.517ZM231.517 224.485C231.369 224.535 231.271 224.683 231.196 224.88C231.122 225.102 231.098 225.349 231.098 225.67C231.098 225.99 231.122 226.262 231.196 226.459C231.271 226.681 231.369 226.879 231.517 227.101V224.485ZM231.813 232.528C231.937 232.479 232.036 232.356 232.134 232.183C232.208 231.986 232.258 231.714 232.258 231.344C232.258 231.023 232.233 230.727 232.159 230.456C232.085 230.185 231.986 229.913 231.813 229.691V232.528Z" fill="#F6F7F7"/>
<path opacity="0.9" d="M299.558 152.936C299.558 158.561 298.028 163.125 296.153 163.125H292.994C293.561 163.125 294.129 162.73 294.598 162.015C295.264 161.053 295.807 159.523 296.153 157.648C296.399 156.242 296.547 154.638 296.547 152.936C296.547 151.233 296.399 149.63 296.153 148.223C295.807 146.348 295.264 144.819 294.598 143.856C294.129 143.166 293.561 142.746 292.994 142.746H296.153C298.028 142.746 299.558 147.31 299.558 152.936Z" fill="#F37C20"/>
<path d="M296.547 152.936C296.547 154.639 296.399 156.242 296.153 157.649C295.807 159.524 295.264 161.053 294.598 162.015C294.129 162.706 293.561 163.126 292.994 163.126H292.969C290.995 163.126 289.39 158.561 289.39 152.936C289.39 147.311 290.995 142.747 292.969 142.747H292.994C293.561 142.747 294.129 143.141 294.598 143.857C295.264 144.819 295.807 146.349 296.153 148.224C296.399 149.63 296.547 151.234 296.547 152.936Z" fill="#FCB713"/>
<path d="M292.821 158.906C292.673 158.882 292.525 158.808 292.401 158.684C292.278 158.586 292.179 158.462 292.081 158.339C291.982 158.216 291.908 158.092 291.858 157.944C291.809 157.821 291.76 157.722 291.735 157.648C291.71 157.574 291.686 157.5 291.686 157.426C291.686 157.352 291.686 157.278 291.71 157.155L291.933 156.193C291.957 156.094 291.982 156.02 292.031 156.02C292.056 156.02 292.105 156.094 292.179 156.217C292.278 156.415 292.377 156.612 292.475 156.76C292.599 156.933 292.698 157.031 292.821 157.081V153.923C292.698 153.775 292.549 153.602 292.426 153.405C292.303 153.207 292.179 152.985 292.056 152.714C291.957 152.442 291.858 152.122 291.784 151.727C291.71 151.357 291.686 150.888 291.686 150.345C291.686 149.95 291.71 149.58 291.76 149.235C291.809 148.89 291.883 148.569 291.957 148.297C292.056 148.026 292.155 147.804 292.303 147.607C292.451 147.434 292.624 147.311 292.796 147.261V146.743C292.796 146.669 292.796 146.595 292.821 146.521C292.846 146.472 292.87 146.422 292.895 146.422H292.969C292.994 146.422 293.018 146.447 293.043 146.521C293.068 146.57 293.068 146.644 293.068 146.743V147.286C293.191 147.311 293.314 147.385 293.413 147.483C293.537 147.582 293.635 147.681 293.709 147.779C293.808 147.903 293.857 148.001 293.931 148.1C293.981 148.199 294.03 148.273 294.055 148.322C294.08 148.371 294.104 148.445 294.104 148.569C294.104 148.668 294.104 148.766 294.08 148.865L293.857 149.802C293.808 150 293.759 150.049 293.709 149.926C293.635 149.778 293.537 149.605 293.438 149.432C293.339 149.26 293.216 149.136 293.068 149.038V151.998C293.191 152.146 293.314 152.319 293.463 152.516C293.611 152.714 293.734 152.96 293.833 153.257C293.956 153.553 294.055 153.898 294.129 154.293C294.203 154.688 294.252 155.156 294.252 155.674C294.252 156.563 294.154 157.303 293.956 157.87C293.759 158.462 293.463 158.783 293.092 158.857V160.535C293.092 160.609 293.092 160.683 293.068 160.757C293.043 160.806 293.018 160.831 292.994 160.831C292.969 160.831 292.92 160.806 292.87 160.782C292.821 160.757 292.796 160.683 292.796 160.535V158.906H292.821ZM292.821 149.112C292.673 149.161 292.574 149.309 292.5 149.506C292.426 149.728 292.401 149.975 292.401 150.296C292.401 150.617 292.426 150.888 292.5 151.085C292.574 151.307 292.673 151.505 292.821 151.727V149.112ZM293.092 157.155C293.216 157.105 293.314 156.982 293.413 156.809C293.487 156.612 293.537 156.341 293.537 155.97C293.537 155.65 293.512 155.354 293.438 155.082C293.364 154.811 293.265 154.539 293.092 154.317V157.155Z" fill="#F6F7F7"/>
<path d="M121.472 240.03C126.42 240.03 130.431 236.02 130.431 231.074C130.431 226.127 126.42 222.118 121.472 222.118C116.524 222.118 112.513 226.127 112.513 231.074C112.513 236.02 116.524 240.03 121.472 240.03Z" fill="#FCB713"/>
<path d="M121.052 236.33C120.657 236.305 120.312 236.231 120.016 236.157C119.72 236.058 119.448 235.96 119.226 235.836C119.004 235.713 118.806 235.614 118.683 235.491C118.535 235.367 118.436 235.293 118.362 235.244C118.288 235.17 118.239 235.121 118.239 235.071C118.214 235.022 118.239 234.923 118.313 234.825L118.856 233.961C118.905 233.862 118.979 233.813 119.078 233.813C119.177 233.813 119.275 233.862 119.423 233.986C119.646 234.158 119.892 234.331 120.189 234.479C120.485 234.627 120.781 234.726 121.077 234.775V232.012C120.756 231.889 120.411 231.716 120.09 231.568C119.769 231.395 119.448 231.198 119.177 230.951C118.905 230.704 118.683 230.408 118.51 230.088C118.338 229.742 118.264 229.347 118.264 228.879C118.264 228.533 118.313 228.212 118.436 227.916C118.535 227.62 118.708 227.324 118.955 227.102C119.177 226.855 119.473 226.658 119.843 226.51C120.189 226.337 120.608 226.239 121.102 226.214V225.77C121.102 225.696 121.126 225.622 121.176 225.573C121.225 225.523 121.299 225.499 121.373 225.499H121.546C121.62 225.499 121.694 225.523 121.743 225.573C121.793 225.622 121.817 225.696 121.817 225.77V226.239C122.138 226.263 122.434 226.313 122.706 226.411C122.977 226.485 123.224 226.584 123.446 226.683C123.668 226.781 123.841 226.88 123.989 226.979C124.137 227.078 124.236 227.127 124.31 227.176C124.384 227.226 124.433 227.3 124.433 227.398C124.458 227.497 124.433 227.571 124.384 227.645L123.816 228.459C123.693 228.632 123.57 228.657 123.422 228.583C123.224 228.459 122.977 228.311 122.706 228.163C122.434 228.015 122.138 227.892 121.793 227.818V230.408C122.114 230.532 122.434 230.704 122.78 230.877C123.125 231.05 123.446 231.272 123.742 231.519C124.039 231.765 124.261 232.086 124.458 232.431C124.656 232.777 124.754 233.172 124.754 233.64C124.754 234.405 124.507 235.071 123.989 235.589C123.471 236.108 122.755 236.404 121.793 236.453V237.933C121.793 238.007 121.768 238.081 121.719 238.106C121.669 238.155 121.595 238.18 121.521 238.18C121.447 238.18 121.348 238.18 121.225 238.155C121.126 238.131 121.077 238.057 121.077 237.933V236.33H121.052ZM121.052 227.694C120.682 227.744 120.411 227.867 120.238 228.04C120.065 228.237 119.966 228.459 119.966 228.731C119.966 229.027 120.065 229.249 120.238 229.446C120.411 229.619 120.682 229.816 121.052 230.014V227.694ZM121.768 234.775C122.089 234.726 122.36 234.627 122.558 234.455C122.755 234.282 122.854 234.035 122.854 233.714C122.854 233.443 122.78 233.172 122.607 232.925C122.434 232.678 122.163 232.456 121.768 232.259V234.775Z" fill="#F6F7F7"/>
<path d="M155.061 98.0161C154.838 98.5589 154.518 99.0276 154.098 99.4224C153.703 99.8172 153.21 100.138 152.667 100.36L146.398 102.827C146.102 102.951 146.151 103.395 146.472 103.444L148.792 103.814C149.483 103.913 149.779 104.727 149.335 105.27C149.261 105.368 149.138 105.418 149.014 105.418H148.989L142.622 105.023L141.462 104.949C140.475 104.9 139.488 105.023 138.55 105.344L135.835 106.257L136.354 100.878L136.428 100.138L146.99 97.0045C147.558 96.8318 148.15 96.7578 148.743 96.7578L154.271 96.8318C154.888 96.8072 155.283 97.4486 155.061 98.0161Z" fill="#F28389"/>
<path d="M142.622 104.999L141.462 104.925C140.475 104.875 139.488 104.999 138.55 105.319L137.44 105.689C137.908 104.974 138.205 104.11 138.205 103.198V100.41C138.797 101.026 139.093 102.482 139.833 102.877C140.278 103.124 140.821 103.148 141.24 103.395C141.512 103.568 141.734 103.814 141.931 104.061C142.203 104.357 142.449 104.678 142.622 104.999Z" fill="#F16B6C"/>
<path d="M124.187 187.946L121.373 197.297L119.942 202.034L119.769 202.676L117.869 202.256L117.4 202.133L114.414 201.467L114.512 199.764L115.006 191.82L115.179 188.958L124.187 187.946Z" fill="#F28389"/>
<path d="M123.101 198.333C122.212 199.296 121.817 200.653 120.83 201.516C120.559 201.738 120.263 201.911 119.942 202.059C119.3 202.33 118.56 202.38 117.869 202.256C117.696 202.232 117.548 202.182 117.375 202.158C117.153 202.084 116.931 202.01 116.733 201.911C115.796 201.467 115.055 200.677 114.512 199.789L115.006 191.845C115.253 191.894 115.5 191.993 115.746 192.19C116.882 193.078 117.696 194.411 118.807 195.348C119.004 195.521 120.263 196.508 121.349 197.322C122.237 197.939 123.002 198.432 123.101 198.333Z" fill="#F16B6C"/>
<path d="M36.9944 235.958L27.5422 242.792L24.9015 244.692L20.2124 242.57L21.2736 241.336L24.7534 237.364L32.1819 228.877L36.6735 235.489L36.9944 235.958Z" fill="#F28389"/>
<path d="M49.8277 179.188L38.9194 203.81L19.8916 195.397L11.1304 191.524L9.08201 190.611L0.123397 186.639L0 186.589L0.839099 184.714L1.72756 182.666L4.02274 177.51L5.38011 174.451L10.9083 161.942L24.556 168.011L29.6153 170.256L34.2056 172.279L34.8226 172.551L38.7713 174.303L42.6707 176.03L49.0626 178.842L49.2601 178.941L49.8277 179.188Z" fill="#E96924"/>
<path d="M36.9697 235.983L27.5175 242.793C26.7278 242.966 25.9627 243.138 25.173 243.311C23.9637 243.582 22.4582 243.755 21.7179 242.744C21.4217 242.349 21.323 241.831 21.2736 241.337L24.7534 237.365C28.2332 237.71 31.9104 237.513 35.02 236.23C35.1187 236.181 35.1928 236.156 35.2915 236.107L36.2787 236.452L36.9697 235.983Z" fill="#F16B6C"/>
<path d="M25.7406 161.054L30.2816 163.077L29.6399 164.113L25.79 162.411L23.5195 167.543L22.4089 167.049L24.9262 161.35C25.0743 161.054 25.4445 160.93 25.7406 161.054Z" fill="#A04323"/>
<path d="M40.6223 168.307L38.105 174.006L36.9944 173.513L39.2649 168.381L37.2659 167.493L35.7111 166.802L35.9826 165.692C35.9826 165.667 35.9826 165.618 35.9826 165.593L37.6854 166.333L40.3261 167.518C40.6223 167.641 40.7704 168.011 40.6223 168.307Z" fill="#A04323"/>
<path d="M35.9825 165.692L35.7111 166.802L34.5758 166.284L34.5511 166.26C34.7239 165.89 34.8966 165.519 35.0447 165.149L35.489 165.347L35.9825 165.569C35.9825 165.618 35.9825 165.643 35.9825 165.692Z" fill="#A04323"/>
<path opacity="0.5" d="M10.8589 162.041L15.7454 176.301C16.0416 177.14 16.6586 177.831 17.473 178.201L33.1444 185.134C33.9588 185.504 34.8966 185.504 35.7111 185.158L49.6796 179.138" fill="#FCB713"/>
<path d="M19.6941 181.729L19.2993 181.556C18.781 181.334 18.5342 180.717 18.781 180.199L19.5214 178.522C19.7435 178.004 20.3605 177.757 20.8788 178.004L21.2736 178.176C21.7919 178.398 22.0387 179.015 21.7919 179.533L21.0515 181.211C20.8294 181.704 20.2124 181.951 19.6941 181.729Z" fill="#A04323"/>
<path d="M29.5659 186.096L29.171 185.924C28.6528 185.701 28.406 185.085 28.6528 184.567L29.3932 182.889C29.6153 182.371 30.2323 182.124 30.7505 182.371L31.1454 182.543C31.6637 182.765 31.9105 183.382 31.6637 183.9L30.9233 185.578C30.7012 186.096 30.0842 186.318 29.5659 186.096Z" fill="#A04323"/>
<path opacity="0.15" d="M34.8226 172.551L1.72755 182.666L4.02274 177.51L28.6528 170.306L29.6153 170.256L34.2056 172.279L34.8226 172.551Z" fill="#F6F7F7"/>
<path d="M10.2913 161.67L0.419515 183.999C0.0493243 184.862 -3.44515e-05 185.775 0.246759 186.614C0.246759 186.639 0.271439 186.688 0.271439 186.713C0.592271 187.699 1.30797 188.538 2.34451 188.982L35.9085 203.86C37.9569 204.773 40.3261 203.835 41.2392 201.787L51.0122 179.706L10.2913 161.67ZM40.5482 200.134C39.635 202.182 37.2658 203.095 35.2174 202.207L11.1304 191.548H11.1057L9.0573 190.635L3.45508 188.119C2.56662 187.724 1.90028 187.033 1.53009 186.194C1.11054 185.257 1.08586 184.147 1.53009 183.135L10.9083 161.966L49.0626 178.842L49.26 178.941L49.8276 179.188L40.5482 200.134Z" fill="#A04323"/>
<path opacity="0.15" d="M49.26 178.941L13.006 192.141L11.1304 191.499H11.1057L9.05732 190.586L3.4551 188.119C2.56664 187.724 1.9003 187.034 1.53011 186.195L38.7713 174.303L42.6706 176.03L49.0379 178.842L49.26 178.941Z" fill="#F6F7F7"/>
<path d="M134.404 155.7L123.891 190.636C123.594 191.622 122.731 192.338 121.719 192.437L118.733 193.103L113.994 194.213L116.018 165.519L91.6099 173.612C89.0926 174.673 87.1676 176.77 86.2545 179.336L77.9869 200.726L76.0372 205.784C75.0007 208.424 73.2484 210.719 70.9779 212.396C70.8792 212.47 70.7558 212.544 70.6571 212.618L37.0191 235.958L36.9944 235.983L36.3034 236.452L35.3162 236.106L32.1819 234.971L27.9124 233.417L54.887 204.871C55.6027 204.156 56.2443 203.391 56.7626 202.552C56.8119 202.478 56.8613 202.379 56.9107 202.305C57.6017 201.171 58.0953 199.962 58.4161 198.679L61.7478 184.986L62.661 181.235L66.6343 165.001L66.8565 164.088L99.1618 153.159L101.827 152.246L105.652 150.79L105.726 150.765L124.211 143.709C125.1 143.364 126.013 143.216 126.926 143.216C129.616 143.216 132.183 144.647 133.59 147.089C135.046 149.705 135.366 152.813 134.404 155.7Z" fill="#4E4688"/>
<path opacity="0.2" d="M105.727 150.741C105.727 150.741 104.468 162.115 88.0808 169.073C81.1459 172.009 76.0126 175.315 71.9898 178.177L56.9107 202.281C57.6017 201.146 58.0953 199.937 58.4161 198.654L61.7479 184.961L62.661 181.211L66.6344 164.977L99.1618 153.134L105.652 150.766L105.727 150.741Z" fill="black"/>
<path d="M96.1262 122.689L96.8172 160.511C96.8172 160.511 90.8201 164.804 89.5615 164.656L88.8211 164.952L88.2782 165.174C88.2782 165.174 83.6138 167.666 83.367 167.765L81.1952 150.05L77.7401 121.973L76.3333 113.19L77.9869 113.042L78.8013 112.968L83.2436 112.548H83.2683H83.2929L94.1272 111.907L94.3493 111.882H94.448L94.9663 111.858L95.8547 111.808L96.8913 111.463L98.0759 111.068L98.3967 110.945L99.5813 110.451L100.124 110.229L101.284 109.736L101.852 114.325L96.1262 122.689Z" fill="white"/>
<path d="M96.8172 112.475C96.8172 112.475 96.2496 116.595 96.0769 117.557C96.0522 117.656 96.0522 117.705 96.0522 117.73C96.0522 117.754 96.0275 117.754 96.0028 117.779C95.6079 118.075 92.7698 119.037 90.6227 119.753C89.216 120.222 88.1054 120.567 88.1054 120.567L80.9484 113.906C80.9484 113.906 80.282 113.437 82.7993 113.486C82.9227 113.486 82.6759 112.697 82.7253 112.549C82.7253 112.524 82.75 112.524 82.75 112.524C82.7993 112.524 82.8487 112.524 82.8981 112.524C83.0215 112.524 83.1449 112.524 83.2682 112.499C83.7865 112.401 84.2554 112.08 84.6503 111.636C85.2673 110.97 85.7362 110.007 86.1064 109.07C86.6987 107.565 86.9702 106.134 86.9702 106.134C86.9702 106.134 87.3157 105.714 87.8586 105.221C89.0185 104.135 91.0916 102.704 92.2269 104.703C92.5477 105.27 92.7945 106.084 92.9426 107.244C93.0413 108.058 93.1647 108.749 93.3128 109.366C93.5596 110.402 93.8804 111.142 94.2012 111.636C94.2506 111.71 94.2999 111.759 94.3246 111.833C95.4846 113.412 96.8172 112.475 96.8172 112.475Z" fill="#F28389"/>
<path d="M35.7111 166.803L37.2659 167.494L36.8216 168.776C36.7723 168.9 36.6736 168.999 36.5502 169.023C35.8838 169.221 35.2668 168.628 35.4149 167.962L35.7111 166.803Z" fill="#F16B6C"/>
<path d="M42.6213 156.958L41.6094 158.143L40.8444 159.006C40.1287 159.82 39.5857 160.758 39.2402 161.769L38.6479 163.472L37.6607 166.334L35.9579 165.594C35.9332 165.347 35.6617 165.223 35.4643 165.371C35.4396 165.371 35.4396 165.396 35.4149 165.396L34.5511 166.284L30.7258 170.257C30.331 170.676 29.8374 170.997 29.3191 171.219C28.8008 171.441 28.2332 171.564 27.6409 171.564C27.0239 171.564 26.6044 170.947 26.8265 170.355L28.8749 165.223C29.0476 164.804 29.2451 164.434 29.4919 164.064C29.5906 163.94 29.6646 163.817 29.7633 163.694L30.1829 163.2L36.7229 155.157L42.6213 156.958Z" fill="#F28389"/>
<path d="M94.448 111.266L90.4746 115.929C89.7096 116.817 88.3522 116.916 87.4637 116.151L83.2682 112.524L83.7865 118.372L88.8458 121.406L91.4371 122.122L93.6336 116.127L94.448 111.266Z" fill="#F16B6C"/>
<g opacity="0.15">
<path opacity="0.15" d="M84.6009 113.98L91.0916 120.395L88.4015 124.688L80.2573 114.399L84.6009 113.98Z" fill="#6457A4"/>
<path opacity="0.15" d="M101.259 109.711L99.0383 117.779L98.9396 119.062L95.3611 122.566L90.8201 120.123H90.7954L90.6967 120.074V120.024L90.7954 119.827L94.4233 111.883L94.9416 111.858L95.83 111.784L96.8912 111.463L98.0512 111.068L98.372 110.945L101.259 109.711Z" fill="#6457A4"/>
</g>
<path d="M90.524 119.753L87.7106 124.243L78.8013 112.968L83.2436 112.548H83.2683L90.524 119.753Z" fill="white"/>
<path d="M98.3721 110.945L96.0769 117.582L96.0028 117.804L94.5961 121.899L91.1904 120.098L90.6227 119.802L90.524 119.753L94.1025 111.907L94.2013 111.71C94.2506 111.784 94.4974 111.734 94.5468 111.784H94.7195C94.8676 111.784 95.0404 111.784 95.1884 111.784C95.7561 111.759 96.3237 111.66 96.8666 111.463L98.0512 111.068L98.3721 110.945Z" fill="white"/>
<path d="M138.229 99.6196V103.765C138.229 104.677 137.958 105.541 137.464 106.256C136.946 107.046 136.156 107.687 135.218 108.033C131.516 109.365 125.964 112.227 120.534 115.212C114.586 118.494 108.762 121.973 105.677 123.848C104.098 124.81 102.962 126.34 102.543 128.141C99.7541 140.205 105.184 152.196 105.184 152.196C105.184 152.196 104.32 153.602 102.962 155.28C101.26 157.402 98.7916 159.943 96.3236 160.658C95.2377 160.979 94.1519 160.116 94.1765 158.981L94.7195 130.213L94.7688 127.869C94.7688 127.844 94.7688 127.82 94.7688 127.82C94.8182 125.402 95.2871 123.009 96.1509 120.764L100.272 109.957L104.147 108.896L138.229 99.6196Z" fill="#6457A4"/>
<path d="M104.147 108.922L94.7195 130.239L94.7688 127.895C94.7688 127.87 94.7688 127.845 94.7688 127.845C94.8182 125.428 95.2871 123.034 96.1509 120.789L100.272 109.983L104.147 108.922Z" fill="#4E4688"/>
<path d="M89.9317 122.96L86.1804 144.228L89.9317 149.137L93.3128 143.66L92.2269 122.837L89.9317 122.96Z" fill="#FCB713"/>
<path d="M90.4993 124.589L88.13 129.967L85.7361 135.321L85.514 135.173L93.214 126.415L94.2752 125.206L93.5348 126.637L86.8961 139.639L86.5259 139.343L90.9682 135.124L95.4105 130.905L96.99 129.425L95.756 131.201L91.5605 137.344L89.4627 140.428L87.365 143.488L87.0935 143.241L96.4964 136.925L97.1874 136.456L96.6445 137.073L90.4993 143.981L96.4717 136.95L96.6198 137.098L87.3156 143.537L86.5012 144.104L87.0441 143.29L89.1172 140.206L91.215 137.122L95.3858 130.954L95.7313 131.25L91.3137 135.469L86.8467 139.688L85.8348 140.65L86.4765 139.417L93.1646 126.464L93.5102 126.686L85.7114 135.346L85.1191 135.987L85.4893 135.198L87.982 129.893L90.4993 124.589Z" fill="#F6F7F7"/>
<path d="M90.2525 119.901L88.2782 121.998L89.7836 124.367L91.906 124.243L92.9426 121.307L90.2525 119.901Z" fill="#E96924"/>
<path d="M111.452 205.734C111.526 206.277 111.65 206.771 111.798 207.264C111.847 207.486 111.946 207.708 112.118 207.856C112.267 208.004 112.415 208.029 112.612 208.078C114.957 208.67 117.227 208.794 119.621 208.399C119.399 207.955 119.67 207.535 120.115 207.387C120.559 207.239 121.003 207.363 121.423 207.461C122.212 207.659 122.928 207.906 123.742 208.078C127.839 208.966 131.739 208.917 135.811 207.906C136.823 207.659 137.736 207.264 138.624 206.721C138.846 206.598 139.019 206.45 139.142 206.203C139.266 205.956 139.192 205.611 139.142 205.34C139.044 204.896 138.92 204.451 138.55 204.155C138.303 203.958 138.032 203.909 137.736 203.859C136.156 203.588 134.601 203.81 133.022 203.415C130.579 202.798 128.654 201.195 126.581 199.788C125.297 198.9 123.94 198.037 122.583 197.297C121.719 196.828 121.274 197.223 120.756 197.889C120.238 198.53 119.868 199.246 119.177 199.739C118.338 200.356 117.375 200.479 116.511 199.862C116.018 199.517 115.796 198.9 115.425 198.407C115.179 198.086 114.858 197.716 114.463 197.568C113.945 197.371 113.723 197.519 113.377 197.938C112.76 198.654 112.316 199.492 112.02 200.405C111.427 202.132 111.23 203.884 111.452 205.734Z" fill="#444445"/>
<path d="M132.824 208.473C132.898 208.449 132.972 208.449 133.047 208.424C133.022 208.325 132.997 208.227 132.972 208.128C132.898 208.153 132.824 208.153 132.75 208.177C132.775 208.276 132.8 208.375 132.824 208.473Z" fill="#444445"/>
<path d="M111.427 205.439C111.427 205.513 111.452 205.661 111.477 205.759C111.477 205.858 111.501 205.957 111.526 206.031C111.526 206.105 111.551 206.154 111.551 206.228C111.551 206.277 111.576 206.302 111.576 206.351C111.6 206.425 111.625 206.549 111.625 206.623C111.65 206.697 111.65 206.746 111.674 206.771C111.674 206.82 111.699 206.87 111.699 206.894C111.699 206.919 111.699 206.919 111.699 206.944C111.699 206.968 111.699 206.968 111.724 206.993C111.724 207.018 111.724 207.042 111.748 207.092C111.773 207.141 111.773 207.215 111.798 207.289C111.822 207.363 111.847 207.462 111.896 207.56C111.896 207.585 111.896 207.585 111.921 207.634C111.946 207.684 111.97 207.807 111.995 207.856C114.537 208.745 116.956 208.794 119.596 208.449C119.522 208.128 119.596 207.437 119.966 207.388C120.509 207.289 121.052 207.462 121.521 207.536C122.015 207.585 122.336 207.733 122.78 207.856C122.78 207.856 122.78 207.856 122.805 207.856C123.076 207.93 123.397 208.029 123.668 208.103C124.878 208.399 126.235 208.72 127.444 208.794C128.974 208.868 130.357 208.745 131.788 208.671C132.084 208.646 132.306 208.621 132.504 208.597C132.726 208.572 132.923 208.547 133.047 208.523C134.577 208.276 136.008 207.955 137.44 207.412C137.538 207.388 137.563 207.363 137.612 207.338C137.686 207.314 137.76 207.264 137.81 207.24C137.859 207.215 137.859 207.215 137.908 207.19C137.933 207.166 137.958 207.166 137.982 207.166C138.427 206.894 138.846 206.648 139.167 206.228C139.192 206.203 139.167 206.179 139.192 206.105C139.216 206.031 139.216 205.883 139.216 205.784C139.216 205.759 139.216 205.71 139.216 205.685C139.216 205.661 139.216 205.636 139.216 205.611C139.216 205.488 139.192 205.365 139.167 205.241C139.093 205.291 139.093 205.315 139.019 205.365C138.032 206.006 137.341 206.45 136.082 206.746C133.886 207.289 131.122 207.61 128.9 207.708C127.815 207.758 126.482 207.56 125.717 207.437C124.039 207.166 122.533 206.722 121.2 206.351C120.139 206.055 119.991 206.006 119.053 205.907C118.733 205.883 118.56 205.932 118.091 205.932C115.968 205.932 113.673 205.833 111.551 205.488C111.501 205.439 111.427 205.414 111.427 205.439Z" fill="black"/>
<path d="M111.452 205.76C111.427 205.858 111.477 205.932 111.501 206.031C111.501 206.031 111.501 206.031 111.501 206.056C111.501 206.08 111.526 206.179 111.526 206.228C111.526 206.278 111.551 206.302 111.551 206.352C111.551 206.401 111.575 206.426 111.575 206.475C111.575 206.524 111.6 206.598 111.625 206.648C111.65 206.697 111.65 206.771 111.674 206.796C111.699 206.821 111.674 206.845 111.699 206.87C111.699 206.895 111.699 206.895 111.724 206.919C111.724 206.944 111.724 206.944 111.724 206.969C111.724 206.993 111.724 206.993 111.748 207.018C111.748 207.043 111.748 207.067 111.773 207.092C111.773 207.117 111.773 207.067 111.773 207.117C111.798 207.166 111.798 207.24 111.822 207.314C111.847 207.388 111.872 207.487 111.921 207.585C111.921 207.61 111.921 207.61 111.946 207.659C111.97 207.709 111.995 207.832 112.02 207.881C114.562 208.77 116.98 208.819 119.621 208.474C119.621 208.104 119.572 207.487 120.016 207.388C120.559 207.289 121.052 207.462 121.571 207.536C121.99 207.585 122.385 207.758 122.805 207.857C122.805 207.857 122.805 207.857 122.829 207.857C123.125 207.931 123.397 208.029 123.693 208.104C124.952 208.424 126.21 208.696 127.518 208.819C127.543 208.819 127.592 208.819 127.617 208.819C128.802 208.844 130.011 208.794 131.196 208.72C131.418 208.696 131.64 208.696 131.862 208.671C132.084 208.646 132.356 208.622 132.578 208.597C132.775 208.572 132.948 208.548 133.145 208.523C134.552 208.326 135.885 208.029 137.217 207.536C137.341 207.487 137.44 207.437 137.514 207.413C137.588 207.388 137.637 207.363 137.686 207.339C137.76 207.314 137.834 207.265 137.884 207.24C137.933 207.215 137.933 207.215 137.982 207.191C138.007 207.166 138.007 207.166 138.057 207.166C138.525 206.919 138.97 206.722 139.241 206.228C139.266 206.179 139.241 206.179 139.266 206.105C139.266 206.031 139.29 205.883 139.29 205.784C139.29 205.76 139.29 205.71 139.29 205.686C139.29 205.661 139.315 205.636 139.29 205.636C139.266 205.636 139.414 205.587 139.241 205.612C139.192 205.636 139.71 205.291 139.019 205.809C138.303 206.302 137.514 206.821 136.008 207.166C133.343 207.733 128.629 208.276 125.865 207.807C123.101 207.339 121.694 206.45 119.103 206.302C116.561 206.08 113.945 206.204 111.452 205.76C111.477 205.76 111.452 205.76 111.452 205.76Z" fill="#232323"/>
<path d="M123.792 197.617C123.94 197.716 124.063 197.79 124.211 197.889C123.965 198.333 123.693 198.777 123.446 199.221C123.397 199.295 123.348 199.32 123.274 199.344C123.199 199.369 123.175 199.344 123.125 199.32C123.027 199.221 122.953 199.147 123.027 198.999C123.249 198.53 123.545 198.086 123.792 197.617Z" fill="#232323"/>
<path d="M124.483 199.838C124.433 199.912 124.384 199.936 124.31 199.936C124.236 199.961 124.187 199.936 124.162 199.912C124.063 199.813 123.989 199.739 124.063 199.591C124.285 199.147 124.582 198.727 124.804 198.283C124.952 198.382 125.075 198.456 125.223 198.555C125.001 198.974 124.73 199.418 124.483 199.838Z" fill="#232323"/>
<path d="M125.519 200.479C125.47 200.553 125.421 200.578 125.347 200.578C125.273 200.578 125.248 200.578 125.199 200.528C125.1 200.43 125.026 200.331 125.124 200.207C125.347 199.788 125.618 199.369 125.865 198.949C126.013 199.048 126.136 199.147 126.284 199.245C126.038 199.665 125.766 200.084 125.519 200.479Z" fill="#232323"/>
<path d="M15.9923 242.644C15.9676 242.693 15.7948 242.841 15.7948 242.89C15.7948 242.964 15.7208 243.014 15.7208 243.063C15.6961 243.113 15.6961 243.137 15.6714 243.187C15.6468 243.236 15.6468 243.261 15.6221 243.31C15.5974 243.359 15.5727 243.433 15.548 243.458C15.5234 243.507 15.4987 243.557 15.4987 243.606C15.474 243.655 15.474 243.655 15.474 243.68C15.4493 243.705 15.4493 243.729 15.4493 243.779C15.4246 243.803 15.4246 243.853 15.4 243.877C15.4 243.902 15.4 243.877 15.3753 243.927C15.3506 243.976 15.3259 244.075 15.3013 244.124C15.2766 244.198 15.2272 244.321 15.2272 244.371C15.2025 244.42 15.2272 244.395 15.2025 244.469C15.1779 244.519 15.1532 244.642 15.1285 244.716C16.7327 246.961 18.6083 248.54 21.0515 249.873C21.1503 249.552 21.5205 249.034 21.8906 249.182C22.4336 249.379 22.7791 249.823 23.1987 250.119C23.6182 250.415 23.865 250.736 24.2352 251.057C24.2352 251.057 24.2352 251.057 24.2352 251.082C24.4573 251.279 24.7041 251.526 24.9509 251.698C26.0368 252.439 27.2214 253.203 28.4554 253.524C30.0102 253.919 31.4663 253.82 32.9717 253.796C33.2678 253.796 33.49 253.771 33.7121 253.771C33.9342 253.771 34.1316 253.771 34.2797 253.771C35.8345 253.697 37.2906 253.499 38.7714 253.179C38.8701 253.154 38.8947 253.129 38.9688 253.129C39.0428 253.105 39.1169 253.08 39.1662 253.055C39.2156 253.031 39.2403 253.031 39.2649 253.031C39.2896 253.031 39.3143 253.006 39.339 253.006C39.8079 252.809 40.2274 252.611 40.6223 252.241C40.647 252.217 40.647 252.167 40.647 252.118C40.6717 252.068 40.6963 251.896 40.6963 251.822C40.6963 251.748 40.721 251.723 40.6963 251.649C40.6717 251.6 40.7457 251.649 40.7457 251.624C40.0053 250.588 41.0419 250.415 39.3883 249.749C37.9569 249.182 35.8345 249.404 33.9589 248.713C32.0586 248.022 30.5038 244.173 29.8868 242.545C29.2698 240.941 30.0102 241.706 28.7515 241.756C27.4682 241.805 25.5432 242.767 24.3833 241.731C23.1987 240.695 24.6054 239.51 23.9637 238.351C23.3221 237.191 23.4208 237.142 21.5945 237.833C19.9903 238.4 16.782 240.571 15.9923 242.644Z" fill="#444445"/>
<path d="M34.0328 253.722C34.1069 253.722 34.1809 253.697 34.255 253.697C34.255 253.599 34.2303 253.5 34.2303 253.376C34.1562 253.376 34.0822 253.401 34.0082 253.401C34.0328 253.5 34.0328 253.623 34.0328 253.722Z" fill="#444445"/>
<path d="M16.091 242.373C16.0416 242.422 15.9676 242.57 15.9182 242.644C15.8689 242.718 15.8195 242.817 15.7948 242.891C15.7702 242.965 15.7455 243.014 15.7208 243.064C15.6961 243.113 15.6961 243.138 15.6714 243.187C15.6468 243.261 15.5974 243.384 15.5727 243.434C15.548 243.508 15.5234 243.557 15.4987 243.582C15.474 243.631 15.474 243.68 15.4493 243.705C15.4493 243.73 15.4493 243.73 15.4246 243.754C15.4246 243.779 15.4246 243.779 15.4 243.804C15.3753 243.828 15.3753 243.853 15.3753 243.902C15.3506 243.952 15.3259 244.026 15.3013 244.1C15.2766 244.174 15.2519 244.272 15.2272 244.371C15.2272 244.396 15.2272 244.396 15.2025 244.445C15.1779 244.495 15.1532 244.618 15.1285 244.667C16.7327 246.912 18.6083 248.491 21.0269 249.824C21.1256 249.503 21.4958 248.985 21.866 249.133C22.4089 249.33 22.7544 249.774 23.174 250.07C23.5935 250.366 23.8403 250.687 24.2105 251.008C24.2105 251.008 24.2105 251.008 24.2105 251.033C24.4326 251.23 24.6794 251.477 24.9262 251.649C26.0121 252.39 27.1967 253.154 28.4307 253.475C29.9855 253.87 31.4416 253.771 32.947 253.747C33.2432 253.747 33.4653 253.722 33.6874 253.722C33.9095 253.722 34.1069 253.722 34.255 253.722C35.8098 253.648 37.2659 253.45 38.7467 253.13C38.8454 253.105 38.8701 253.08 38.9441 253.08C39.0181 253.056 39.0922 253.031 39.1415 253.006C39.1909 252.982 39.2156 252.982 39.2403 252.982C39.2649 252.982 39.2896 252.957 39.3143 252.957C39.7832 252.76 40.2028 252.562 40.5976 252.192C40.6223 252.168 40.6223 252.118 40.6223 252.069C40.647 252.02 40.6717 251.847 40.6717 251.773C40.6717 251.723 40.6717 251.699 40.6717 251.649C40.6717 251.625 40.6717 251.6 40.6717 251.575C40.6717 251.452 40.6717 251.329 40.6717 251.205C40.5976 251.23 40.5976 251.279 40.4989 251.329C39.413 251.797 38.6973 252.143 37.414 252.291C35.1928 252.538 32.4534 252.809 30.2076 252.76C29.1217 252.735 27.9124 252.192 27.1967 251.847C25.6419 251.082 24.482 249.922 23.4701 248.96C22.6557 248.195 22.5817 247.924 21.8166 247.307C21.5451 247.085 21.3971 247.036 21.0515 246.764C19.3487 245.506 17.6705 243.976 16.165 242.422C16.1403 242.422 16.1403 242.323 16.091 242.373Z" fill="black"/>
<path d="M15.9182 242.644C15.8442 242.718 15.8195 242.792 15.7948 242.89C15.7948 242.89 15.7948 242.89 15.7948 242.915C15.7948 242.94 15.7455 243.038 15.7208 243.063C15.6961 243.112 15.6961 243.137 15.6714 243.186C15.6467 243.236 15.6467 243.26 15.6221 243.31C15.5974 243.359 15.5727 243.433 15.548 243.458C15.5233 243.507 15.4987 243.556 15.4987 243.606C15.474 243.63 15.474 243.655 15.474 243.68C15.474 243.704 15.4493 243.729 15.4493 243.729C15.4493 243.754 15.4493 243.754 15.4246 243.778C15.4246 243.803 15.4246 243.803 15.3999 243.828C15.3999 243.852 15.3753 243.877 15.3753 243.902C15.3753 243.927 15.3753 243.902 15.3506 243.951C15.3259 244.001 15.3012 244.099 15.2765 244.149C15.2519 244.223 15.2025 244.346 15.2025 244.395C15.1778 244.445 15.2025 244.42 15.1778 244.494C15.1531 244.543 15.1285 244.667 15.1038 244.741C16.708 246.986 18.5836 248.565 21.0022 249.897C21.1996 249.576 21.4217 249.058 21.8659 249.206C22.3842 249.404 22.7297 249.823 23.1739 250.169C23.5195 250.44 23.8403 250.785 24.1611 251.081C24.1611 251.081 24.1611 251.081 24.1858 251.106C24.4326 251.303 24.6547 251.55 24.9015 251.723C26.0121 252.512 27.172 253.129 28.4553 253.598C28.48 253.598 28.5294 253.623 28.5541 253.623C29.788 253.845 31.022 253.919 32.2806 253.869C32.5028 253.869 32.7496 253.82 32.9717 253.795C33.1938 253.771 33.4899 253.771 33.6874 253.771C33.9095 253.771 34.0822 253.771 34.255 253.771C35.6617 253.697 37.0191 253.524 38.4011 253.253C38.5245 253.228 38.6232 253.203 38.722 253.179C38.8207 253.154 38.8454 253.129 38.9194 253.129C38.9934 253.105 39.0675 253.08 39.1168 253.055C39.1662 253.031 39.1662 253.031 39.2155 253.031C39.2402 253.006 39.2649 253.006 39.2896 253.006C39.7832 252.833 40.2027 252.66 40.5482 252.266C40.5729 252.241 40.5729 252.192 40.5729 252.142C40.5976 252.093 40.6223 251.92 40.6223 251.871C40.6223 251.822 40.6223 251.797 40.6223 251.748C40.6223 251.698 40.647 251.723 40.6223 251.674C40.5976 251.649 40.7457 251.674 40.5976 251.624C40.5482 251.6 41.0171 251.476 40.2274 251.846C39.4377 252.216 38.5986 252.586 37.0931 252.71C34.4277 252.932 29.788 253.376 27.2214 252.142C24.6547 250.909 23.7416 249.182 21.6191 247.627C19.6448 246.147 17.7198 244.42 15.9182 242.644Z" fill="#232323"/>
<path d="M30.3803 242.865C30.4296 242.989 30.479 243.112 30.5037 243.26C30.0595 243.507 29.5906 243.753 29.171 243.975C29.097 244.025 29.0476 244.025 28.9736 244C28.8995 243.975 28.8749 243.951 28.8749 243.901C28.8502 243.753 28.8749 243.679 29.0229 243.605C29.4672 243.359 29.9361 243.112 30.3803 242.865Z" fill="#232323"/>
<path d="M29.5412 244.889C29.4672 244.938 29.4178 244.938 29.3438 244.913C29.2698 244.889 29.2451 244.889 29.2451 244.815C29.2451 244.667 29.2451 244.593 29.3685 244.519C29.788 244.272 30.2569 244.05 30.6765 243.803C30.7259 243.927 30.7752 244.05 30.7999 244.173C30.405 244.42 29.9608 244.667 29.5412 244.889Z" fill="#232323"/>
<path d="M29.9361 245.826C29.862 245.876 29.8127 245.876 29.7387 245.851C29.6646 245.826 29.6399 245.826 29.6399 245.752C29.6153 245.604 29.6399 245.53 29.7633 245.456C30.1582 245.21 30.6024 244.963 31.022 244.741C31.0713 244.864 31.1207 244.987 31.1701 245.111C30.7752 245.333 30.331 245.58 29.9361 245.826Z" fill="#232323"/>
<path opacity="0.07" d="M77.9128 261H15.7948C11.5253 261 8.04549 257.522 8.04549 253.253C8.04549 248.985 11.5253 245.506 15.7948 245.506H77.9128C82.1824 245.506 85.6622 248.985 85.6622 253.253C85.6622 257.546 82.207 261 77.9128 261Z" fill="#6457A4"/>
<path opacity="0.39" d="M88.8211 164.977L88.2781 165.199C88.2781 165.199 86.7234 166.038 85.366 166.753C86.1064 165.766 86.5506 164.582 86.6 163.299L87.982 135.518L88.2781 129.548L88.8211 164.977Z" fill="#C9BDA3"/>
<path d="M88.0808 133.643L87.982 135.518L86.6 163.299C86.526 164.557 86.0817 165.766 85.366 166.753C84.7737 167.543 84.0087 168.184 83.1202 168.628C77.1971 171.49 71.1507 174.081 66.3876 176.03C63.969 177.017 61.8959 177.831 60.3411 178.423C59.0825 178.892 57.8238 177.757 58.1693 176.474L68.0411 138.923L68.584 136.826C68.6581 136.555 68.3372 136.382 68.1398 136.555L41.6094 159.722L40.6469 159.327L36.3774 157.551C36.0072 157.403 35.7604 157.131 35.6123 156.81C35.4149 156.342 35.4396 155.774 35.7851 155.33L65.1536 117.434C66.2148 116.077 67.7202 115.115 69.3984 114.745L76.3334 113.215L85.8843 126.266C87.4144 128.388 88.2042 130.979 88.0808 133.643Z" fill="#6457A4"/>
<path d="M88.0808 133.643L87.9821 135.518L69.3985 114.745L76.3334 113.215L85.8843 126.266C87.4144 128.388 88.2042 130.979 88.0808 133.643Z" fill="#4E4688"/>
<path opacity="0.2" d="M68.0164 138.874L66.3629 176.006C63.9443 176.992 61.8712 177.807 60.3164 178.399C59.0578 178.867 57.7991 177.733 58.1446 176.45L68.0164 138.874Z" fill="black"/>
<path opacity="0.2" d="M120.534 115.238C114.586 118.519 108.762 121.998 105.677 123.873C104.098 124.835 102.962 126.365 102.543 128.166C99.7541 140.231 105.184 152.221 105.184 152.221C105.184 152.221 104.32 153.628 102.962 155.305C99.8034 152.024 99.2111 141.489 99.2111 134.087C99.2111 129.449 101.778 125.181 105.899 122.985L120.534 115.238Z" fill="black"/>
<path d="M91.8814 163.718C91.7826 164.754 91.6346 165.791 91.4618 166.827C91.2891 167.863 91.0669 168.875 90.8201 169.911C90.5487 170.923 90.2772 171.934 89.907 172.921C89.5368 173.908 89.1173 174.87 88.525 175.734C88.6484 175.487 88.7471 175.265 88.8705 175.043C88.9692 174.796 89.0679 174.574 89.1666 174.327C89.2653 174.081 89.3641 173.834 89.4381 173.587C89.5368 173.34 89.6109 173.094 89.6849 172.847C89.8576 172.354 90.0057 171.86 90.1538 171.367C90.2772 170.873 90.4253 170.355 90.5487 169.862C90.8201 168.85 91.0423 167.839 91.2397 166.802C91.3384 166.284 91.4618 165.791 91.5605 165.273C91.6839 164.754 91.7826 164.236 91.8814 163.718Z" fill="#231F20"/>
<path opacity="0.4" d="M116.018 165.52L91.6099 173.612C89.0926 174.673 87.1676 176.77 86.2545 179.336L77.9869 200.727C78.0856 200.283 84.5516 171.021 91.906 170.232C99.3099 169.467 116.018 165.52 116.018 165.52Z" fill="black"/>
<path opacity="0.2" d="M117.918 193.3L114.019 194.213L116.018 165.52L117.918 193.3Z" fill="black"/>
<path opacity="0.2" d="M71.2987 212.051L70.9532 212.396C70.8545 212.47 70.7311 212.544 70.6324 212.618L36.2787 236.476L32.1819 234.971L71.2987 212.051Z" fill="black"/>
<path d="M93.3128 109.415C89.7589 110.352 87.4884 109.834 86.1064 109.119C86.4272 108.329 86.6493 107.565 86.7727 106.997C87.4391 107.639 88.2288 108.132 89.0926 108.477C89.4628 108.625 89.8576 108.724 90.2525 108.798C90.6721 108.872 91.1163 108.921 91.5605 108.921C92.1035 108.921 92.6217 108.847 93.14 108.749C93.214 108.971 93.2634 109.193 93.3128 109.415Z" fill="#F16B6C"/>
<path d="M40.6223 159.278C40.03 160.018 39.5611 160.881 39.2403 161.769L38.6479 163.472C38.3024 162.682 37.8829 161.917 37.3893 161.177C36.7723 160.19 34.9213 158.463 35.2915 157.156C35.3409 156.983 35.4396 156.835 35.563 156.736C35.7111 157.057 35.9579 157.328 36.3281 157.476L40.6223 159.278Z" fill="#F16B6C"/>
<path opacity="0.35" d="M79.9612 99.2501L80.3067 100.558C80.6276 101.717 81.4667 102.68 82.5772 103.124L82.9968 103.272C83.367 104.53 84.058 105.665 84.9465 106.553L97.5083 102.926C97.5576 103.05 97.7304 103.074 97.8538 103.025C97.9772 102.951 98.0265 102.828 98.0759 102.704C98.1252 102.581 98.1746 102.458 98.224 102.334C98.3474 101.619 98.372 100.854 98.2733 100.114L97.9278 97.1777L97.6317 94.7845C97.5083 93.7483 97.1874 92.786 96.7185 91.9472C95.2131 89.2333 92.2022 87.5802 88.9445 87.975C86.2298 88.2957 84.0086 89.9734 82.8734 92.2433C82.3798 93.2301 82.0836 94.3404 82.059 95.5C82.059 95.5246 82.059 95.574 82.059 95.5987V95.722C82.059 96.0428 82.0836 96.3388 82.1083 96.6596L82.2317 97.7451L82.2564 97.9178L81.2939 97.7698C80.4301 97.6464 79.7391 98.436 79.9612 99.2501Z" fill="black"/>
<path opacity="0.19" d="M99.6554 90.0474C99.6554 90.072 99.6307 90.1214 99.6307 90.146C99.6554 90.1214 99.6554 90.0967 99.6554 90.0474Z" fill="white"/>
<path d="M97.4836 94.094C96.8419 94.2914 96.2002 94.4395 95.5586 94.5381C95.4352 94.5628 95.3118 94.5628 95.213 94.5875C93.8063 94.7602 92.3502 94.7355 90.9435 94.6368C89.7342 94.5628 88.5003 94.4148 87.365 93.9707C85.1932 93.1072 84.4528 94.1187 83.7865 96.0925C83.5397 96.8326 83.1202 97.3508 82.7006 97.8442L82.2564 97.9182L82.2317 97.7455L82.1823 97.3508L82.1083 96.6353C82.0589 96.3145 82.0589 95.9938 82.0589 95.6977V95.5744C82.0589 95.5497 82.0589 95.5004 82.0589 95.4757C82.0836 94.3161 82.3798 93.2059 82.8734 92.1943C84.0086 89.9245 86.2298 88.2468 88.9445 87.926C91.9307 87.5559 94.7441 88.9623 96.3483 91.2814C96.373 91.3308 96.3977 91.3801 96.447 91.4048C96.5457 91.5528 96.6445 91.7255 96.7432 91.8982C97.064 92.6137 97.3355 93.3292 97.4836 94.094Z" fill="#F97C15"/>
<path d="M82.676 97.8441C82.3798 98.1895 82.1083 98.5596 81.8616 99.0037C81.4667 99.7686 82.0096 101.545 82.7994 103.223L82.5526 103.124C81.7875 102.828 81.1458 102.26 80.7016 101.57C80.5042 101.249 80.3561 100.928 80.2574 100.558L79.9119 99.2504C79.6897 98.4363 80.3808 97.6468 81.2199 97.7701L82.1824 97.9181" fill="#F28389"/>
<path d="M102.79 88.9127C102.666 89.2581 102.518 89.6035 102.345 89.9489C101.358 91.898 99.6306 93.403 97.4835 94.0938C97.3108 93.329 97.0393 92.6135 96.6938 91.9474C96.5951 91.7747 96.4964 91.6266 96.3976 91.4539C96.373 91.4046 96.3483 91.3552 96.2989 91.3306C94.6948 89.0114 91.906 87.6051 88.8951 87.9751C86.1804 88.2959 83.9592 89.9736 82.824 92.2434C82.3304 93.2303 82.0342 94.3405 82.0096 95.5248C82.0096 95.5495 82.0096 95.5988 82.0096 95.6235V95.7469C82.0096 96.0676 82.0342 96.3637 82.0589 96.6844L82.133 97.3999L82.1823 97.7946L82.207 97.9673L81.8121 97.918L81.2445 97.8193C80.5782 97.7206 80.0105 98.1894 79.9118 98.8062C79.8871 98.9542 79.8871 99.1269 79.9365 99.2996L80.282 100.607C80.3807 100.977 80.5288 101.298 80.7262 101.619C81.1458 102.31 81.7875 102.852 82.5772 103.173L82.824 103.272C82.9721 103.593 83.1448 103.938 83.3176 104.259C83.6384 104.851 84.0086 105.542 84.4775 106.035C84.6749 106.257 85.2179 106.923 85.44 107.022C82.8733 105.813 80.4548 104.135 78.8012 101.866C78.7025 101.742 78.6285 101.619 78.5298 101.495C76.8516 99.0282 76.1359 95.7962 77.0984 92.9589C77.3205 92.2928 77.666 91.6266 78.1596 91.1085C79.048 90.171 80.3807 89.7515 81.6394 89.4061C80.9484 88.2219 81.4666 86.6922 82.3057 85.6313C84.1073 83.3368 87.3897 82.3499 90.1538 83.2875C90.9435 83.5588 91.6098 83.7809 92.2762 83.1641C93.4114 82.1032 94.1025 80.6722 95.2624 79.636C96.6198 78.4024 98.4707 78.205 100.124 79.0192C103.555 80.6475 103.9 85.7053 102.79 88.9127Z" fill="#F97C15"/>
<path d="M98.1993 102.358C97.8044 104.702 96.373 106.725 94.3246 107.885C94.1518 107.984 93.9791 108.082 93.8063 108.156C93.2634 108.403 92.6958 108.6 92.0788 108.724C91.9801 108.749 91.8813 108.773 91.7826 108.773C91.6592 108.798 91.5605 108.798 91.4371 108.823C90.672 108.921 89.9563 108.897 89.2406 108.773C88.4509 108.65 87.6858 108.403 86.9948 108.033C86.4766 107.762 85.983 107.441 85.5141 107.071C85.3166 106.923 85.1192 106.75 84.9464 106.553C84.2801 105.887 83.7125 105.072 83.3176 104.16C83.1942 103.863 83.0708 103.567 82.9968 103.247L82.824 103.173C82.0096 101.495 81.4913 99.7185 81.8862 98.9537C82.3304 98.1148 82.9474 97.5721 83.4163 96.8072C83.5644 96.5605 83.6878 96.3138 83.7865 96.0177C84.4528 94.0439 85.1932 93.0324 87.365 93.8959C88.5003 94.34 89.7342 94.488 90.9435 94.5621C92.4736 94.6607 94.0531 94.6854 95.5832 94.4634C95.7313 94.4387 95.8547 94.414 96.0028 94.3894C96.1262 94.3647 96.2249 94.34 96.3483 94.3153C96.4223 94.3153 96.4717 94.2907 96.5457 94.266C96.5704 94.266 96.5951 94.266 96.6198 94.2413C96.6691 94.2413 96.7185 94.2166 96.7679 94.192C96.7925 94.192 96.8419 94.1673 96.8666 94.1673C96.9159 94.1426 96.9653 94.1426 97.0393 94.118C97.064 94.118 97.1134 94.0933 97.138 94.0933C97.1874 94.0686 97.2368 94.0686 97.2861 94.0439C97.3602 94.0193 97.4589 93.9946 97.5329 93.9699C97.5823 94.192 97.6316 94.4387 97.6563 94.6854L97.7797 95.6723L97.8044 95.9684L97.8291 96.1904L97.8537 96.3878L97.9031 96.8812L97.9278 97.0786L98.2733 100.015C98.3473 100.878 98.3227 101.643 98.1993 102.358Z" fill="#F28389"/>
<path d="M95.5586 94.5379C95.7067 94.5132 95.83 94.4885 95.9781 94.4639C95.83 94.4885 95.682 94.5132 95.5586 94.5379Z" fill="#FF8500"/>
<path d="M102.345 89.9492C101.951 91.4542 100.346 93.3293 99.8034 93.9214C99.0877 94.7356 98.3474 95.5745 97.8044 96.4873L97.7797 96.2899L97.607 94.7849C97.5823 94.5382 97.5329 94.3162 97.4836 94.0695C99.6307 93.4033 101.358 91.923 102.345 89.9492Z" fill="#EA6400"/>
<path d="M85.4154 106.972C82.8487 105.763 80.4301 104.086 78.7766 101.816C78.7519 101.396 78.7519 100.977 78.8013 100.557C78.8753 99.9653 79.0481 99.3238 79.517 98.9784C79.6404 98.8797 79.7884 98.8304 79.9365 98.7563C79.9118 98.9044 79.9118 99.0771 79.9612 99.2498L80.3067 100.557C80.4054 100.927 80.5535 101.248 80.7509 101.569C81.1705 102.26 81.8122 102.803 82.6019 103.123L82.8487 103.222C82.9968 103.543 83.1695 103.888 83.3423 104.209C83.6631 104.801 84.0333 105.492 84.5022 105.985C84.675 106.183 85.2179 106.873 85.4154 106.972Z" fill="#EA6400"/>
<path d="M86.4272 91.6261C89.5121 91.7988 92.2516 93.8959 95.1884 94.5621C93.7817 94.7348 92.3256 94.7101 90.9189 94.6114C89.7096 94.5374 88.4756 94.3894 87.3404 93.9453C85.1686 93.0818 84.4282 94.0933 83.7618 96.0671C83.515 96.8072 83.0955 97.3254 82.676 97.8188L82.2317 97.8928L81.8369 97.8435C81.9602 97.6954 82.059 97.5227 82.1577 97.35C82.4538 96.8072 82.6019 96.1411 82.7006 95.5243C82.8734 94.3894 82.9968 93.1311 83.8112 92.3663C84.5022 91.7495 85.5141 91.5768 86.4272 91.6261Z" fill="#EA6400"/>
<path d="M96.1756 94.7355H96.0522L95.4599 94.7108C95.5092 94.6861 95.5586 94.6861 95.6079 94.6615C95.8054 94.6121 96.0028 94.6615 96.1756 94.7355Z" fill="#FF8500"/>
<path d="M97.2615 94.76C96.916 94.7847 96.5458 94.76 96.2002 94.7354H96.1756L97.2615 94.76Z" fill="#FF8500"/>
<path d="M97.7304 95.7719C95.3858 96.9315 92.4737 96.7588 89.907 96.0927C88.6483 95.7719 87.3403 95.3278 86.057 95.5992C85.0945 95.8213 84.2801 96.3887 83.4163 96.8575C83.5644 96.6108 83.6878 96.3641 83.7865 96.068C84.4529 94.0942 85.1932 93.0827 87.365 93.9462C88.5003 94.3903 89.7342 94.5383 90.9435 94.6124C92.4737 94.711 94.0531 94.7357 95.5833 94.5137C95.7313 94.489 95.8547 94.4643 96.0028 94.4396C96.1262 94.415 96.2249 94.3903 96.3483 94.3656C96.4224 94.3656 96.4717 94.341 96.5458 94.3163C96.5704 94.3163 96.5951 94.3163 96.6198 94.2916C96.6692 94.2916 96.7185 94.2669 96.7679 94.2423C96.7926 94.2423 96.8419 94.2176 96.8666 94.2176C96.9159 94.1929 96.9653 94.1929 97.0393 94.1683C97.064 94.1683 97.1134 94.1436 97.1381 94.1436C97.1874 94.1189 97.2368 94.1189 97.2861 94.0942C97.3602 94.0696 97.4589 94.0449 97.5329 94.0202C97.5823 94.2423 97.6317 94.489 97.6563 94.7357L97.7304 95.7719Z" fill="#F16B6C"/>
<path d="M315.427 126.192C315.205 126.266 314.958 126.315 314.711 126.364C314.613 126.389 314.514 126.389 314.415 126.414H287.465C277.248 125.279 268.067 123.256 264.983 121.381C262.342 119.777 260.392 117.902 259.109 115.953C256.764 112.375 256.641 108.601 258.393 105.887C258.714 105.369 259.059 104.875 259.43 104.382C259.528 104.258 259.602 104.135 259.701 104.012C259.8 103.888 259.874 103.765 259.973 103.641C260.565 102.852 261.157 102.161 261.75 101.544C261.848 101.446 261.972 101.322 262.07 101.224C262.12 101.174 262.169 101.125 262.243 101.076C262.391 100.928 262.539 100.804 262.687 100.656C262.761 100.582 262.835 100.533 262.909 100.459C262.984 100.409 263.033 100.335 263.107 100.286C263.132 100.261 263.156 100.237 263.181 100.212C264.193 99.3485 265.303 98.5344 266.661 97.5968C267.524 95.5244 268.462 93.4026 269.524 91.2808C270.141 90.0472 270.807 88.7889 271.498 87.5799C271.523 87.5553 271.547 87.5059 271.547 87.4813C271.621 87.3579 271.671 87.2345 271.745 87.1358C271.745 87.1112 271.769 87.1112 271.769 87.0865C271.893 86.8645 272.016 86.6671 272.14 86.445C272.164 86.4204 272.164 86.3957 272.189 86.371C272.337 86.149 272.46 85.9269 272.608 85.6802C272.633 85.6308 272.682 85.5815 272.707 85.5322C275.521 81.0418 278.926 77.0943 283.072 74.7998C283.097 74.7998 283.097 74.7751 283.122 74.7751C283.245 74.7011 283.369 74.6518 283.492 74.5778C283.591 74.5284 283.689 74.4791 283.788 74.4297C283.936 74.3557 284.109 74.2817 284.257 74.2077C284.282 74.2077 284.306 74.183 284.331 74.183C284.356 74.183 284.38 74.1583 284.405 74.1583C286.602 73.1468 288.527 72.5546 290.205 72.1846C290.205 72.1846 290.205 72.1846 290.229 72.1846C290.304 72.1599 290.378 72.1599 290.452 72.1352L291.71 71.8638L292.525 71.9132L292.352 67.2748C292.327 66.5347 292.377 65.8192 292.475 65.1037C292.92 62.3404 294.154 55.4569 295.955 54.47C297.312 53.7298 298.62 53.8779 299.608 54.8154C299.731 54.9634 299.854 55.0868 299.978 55.2348C300.447 55.827 300.792 56.6411 300.99 57.628C301.607 60.7861 303.458 61.8963 306.098 62.2911C307.678 62.5378 308.073 61.2795 308.64 59.9472C309.01 59.0343 309.479 58.0968 310.393 57.554C312.688 56.1477 313.872 60.2186 315.871 60.8847C317.377 61.3782 309.381 67.8423 305.333 71.025C305.259 71.025 305.185 71.025 305.111 71.025C304.42 71.025 303.778 71.321 303.161 71.6418C303.137 71.6418 303.137 71.6171 303.112 71.6171C302.964 71.5678 302.841 71.5431 302.717 71.5431C301.483 70.9263 299.904 70.8523 298.941 72.0119C298.843 72.1352 298.769 72.2586 298.695 72.3819C298.67 72.4313 298.645 72.4806 298.62 72.53C298.423 72.9987 298.398 73.5415 298.62 74.0103C298.917 74.6764 299.558 75.1699 300.323 75.1699C300.891 75.1699 301.335 74.8985 301.656 74.4791C301.557 74.8985 301.434 75.3179 301.335 75.7373C301.064 76.7982 300.842 77.8838 300.669 78.9694C300.595 79.5122 300.496 80.055 300.447 80.5977C300.422 80.8691 300.373 81.1405 300.348 81.4366C300.323 81.7573 300.323 82.0534 300.323 82.3741C300.323 82.8922 300.225 83.435 300.2 83.9778C300.151 84.57 300.151 85.1374 300.151 85.7295C300.151 86.0749 300.521 86.297 300.817 86.297C301.113 86.297 301.459 86.0503 301.483 85.7295C301.533 85.1621 301.557 84.6193 301.607 84.0518C301.631 83.5337 301.631 82.9909 301.705 82.4728C301.73 82.3248 301.779 82.2014 301.804 82.0781C301.829 81.93 301.829 81.8067 301.853 81.6586C301.878 81.3873 301.903 81.0912 301.928 80.8198C301.977 80.277 302.051 79.7342 302.125 79.1914C302.273 78.1059 302.396 76.9956 302.544 75.91C302.643 75.1946 302.767 74.5037 302.89 73.8129C303.063 74.3804 303.236 74.9232 303.384 75.4906C303.778 77.0696 304.025 78.698 304.075 80.3263C304.124 81.9054 303.877 83.5091 303.704 85.0881C303.655 85.4088 303.877 85.7049 304.173 85.8036C304.469 85.8776 304.84 85.7295 304.938 85.4335C305.284 84.3726 305.407 83.2623 305.481 82.1521C305.58 80.425 305.432 78.698 305.062 76.9956C304.864 76.1074 304.618 75.2439 304.272 74.3804C304.494 74.4791 304.716 74.5778 304.963 74.6518C305.457 74.7751 305.975 74.7505 306.419 74.5284C315.699 79.7095 319.129 90.7133 320.906 100.533C321.301 102.778 321.893 105.739 322.239 108.847C322.979 116.101 322.51 124.193 315.427 126.192Z" fill="white"/>
<path opacity="0.3" d="M315.427 126.192C315.205 126.266 314.958 126.315 314.711 126.364C314.613 126.389 314.514 126.389 314.415 126.414H287.465C277.248 125.279 268.067 123.256 264.983 121.381C262.342 119.777 260.392 117.902 259.109 115.953C256.764 112.375 256.641 108.601 258.393 105.887C258.714 105.369 259.059 104.875 259.43 104.382C259.528 104.258 259.602 104.135 259.701 104.012C259.8 103.888 259.874 103.765 259.973 103.641C260.565 102.852 261.157 102.161 261.75 101.544C261.848 101.446 261.972 101.322 262.07 101.224C262.12 101.174 262.169 101.125 262.243 101.076C262.391 100.928 262.539 100.804 262.687 100.656C262.761 100.582 262.835 100.533 262.909 100.459C262.984 100.409 263.033 100.335 263.107 100.286C263.132 100.261 263.156 100.237 263.181 100.212C264.193 99.3485 265.303 98.5344 266.661 97.5968C267.524 95.5244 268.462 93.4026 269.524 91.2808C270.141 90.0472 270.807 88.7889 271.498 87.5799C271.523 87.5553 271.547 87.5059 271.547 87.4813C271.621 87.3579 271.671 87.2345 271.745 87.1358C271.745 87.1112 271.769 87.1112 271.769 87.0865C271.893 86.8645 272.016 86.6671 272.14 86.445C272.164 86.4204 272.164 86.3957 272.189 86.371C272.337 86.149 272.46 85.9269 272.608 85.6802C272.633 85.6308 272.682 85.5815 272.707 85.5322C275.521 81.0418 278.926 77.0943 283.072 74.7998C283.097 74.7998 283.097 74.7751 283.122 74.7751C283.245 74.7011 283.369 74.6518 283.492 74.5778C283.591 74.5284 283.689 74.4791 283.788 74.4297C283.936 74.3557 284.109 74.2817 284.257 74.2077C284.282 74.2077 284.306 74.183 284.331 74.183C284.356 74.183 284.38 74.1583 284.405 74.1583C286.602 73.1468 288.527 72.5546 290.205 72.1846C290.205 72.1846 290.205 72.1846 290.229 72.1846C290.304 72.1599 290.378 72.1599 290.452 72.1352L291.71 71.8638L292.525 71.9132L292.352 67.2748C292.327 66.5347 292.377 65.8192 292.475 65.1037C292.92 62.3404 294.154 55.4569 295.955 54.47C297.312 53.7298 298.62 53.8779 299.608 54.8154C299.731 54.9634 299.854 55.0868 299.978 55.2348C300.447 55.827 300.792 56.6411 300.99 57.628C301.607 60.7861 303.458 61.8963 306.098 62.2911C307.678 62.5378 308.073 61.2795 308.64 59.9472C309.01 59.0343 309.479 58.0968 310.393 57.554C312.688 56.1477 313.872 60.2186 315.871 60.8847C317.377 61.3782 309.381 67.8423 305.333 71.025C305.259 71.025 305.185 71.025 305.111 71.025C304.42 71.025 303.778 71.321 303.161 71.6418C303.137 71.6418 303.137 71.6171 303.112 71.6171C302.964 71.5678 302.841 71.5431 302.717 71.5431C301.483 70.9263 299.904 70.8523 298.941 72.0119C298.843 72.1352 298.769 72.2586 298.695 72.3819C298.67 72.4313 298.645 72.4806 298.62 72.53C298.423 72.9987 298.398 73.5415 298.62 74.0103C298.917 74.6764 299.558 75.1699 300.323 75.1699C300.891 75.1699 301.335 74.8985 301.656 74.4791C301.557 74.8985 301.434 75.3179 301.335 75.7373C301.064 76.7982 300.842 77.8838 300.669 78.9694C300.595 79.5122 300.496 80.055 300.447 80.5977C300.422 80.8691 300.373 81.1405 300.348 81.4366C300.323 81.7573 300.323 82.0534 300.323 82.3741C300.323 82.8922 300.225 83.435 300.2 83.9778C300.151 84.57 300.151 85.1374 300.151 85.7295C300.151 86.0749 300.521 86.297 300.817 86.297C301.113 86.297 301.459 86.0503 301.483 85.7295C301.533 85.1621 301.557 84.6193 301.607 84.0518C301.631 83.5337 301.631 82.9909 301.705 82.4728C301.73 82.3248 301.779 82.2014 301.804 82.0781C301.829 81.93 301.829 81.8067 301.853 81.6586C301.878 81.3873 301.903 81.0912 301.928 80.8198C301.977 80.277 302.051 79.7342 302.125 79.1914C302.273 78.1059 302.396 76.9956 302.544 75.91C302.643 75.1946 302.767 74.5037 302.89 73.8129C303.063 74.3804 303.236 74.9232 303.384 75.4906C303.778 77.0696 304.025 78.698 304.075 80.3263C304.124 81.9054 303.877 83.5091 303.704 85.0881C303.655 85.4088 303.877 85.7049 304.173 85.8036C304.469 85.8776 304.84 85.7295 304.938 85.4335C305.284 84.3726 305.407 83.2623 305.481 82.1521C305.58 80.425 305.432 78.698 305.062 76.9956C304.864 76.1074 304.618 75.2439 304.272 74.3804C304.494 74.4791 304.716 74.5778 304.963 74.6518C305.457 74.7751 305.975 74.7505 306.419 74.5284C315.699 79.7095 319.129 90.7133 320.906 100.533C321.301 102.778 321.893 105.739 322.239 108.847C322.979 116.101 322.51 124.193 315.427 126.192Z" fill="#FCB713"/>
<path opacity="0.8" d="M308.616 59.9472C308.048 61.2795 307.653 62.5378 306.074 62.2911C303.433 61.8963 301.582 60.8108 300.99 57.6281C300.792 56.6165 300.447 55.827 299.978 55.2349C303.606 59.1824 306.715 59.9719 308.616 59.9472Z" fill="#FCB713"/>
<path opacity="0.5" d="M320.98 120.541C320.684 122.737 318.759 124.39 316.735 125.328C310.96 128.042 304.692 126.413 298.596 126.413C294.968 126.413 291.069 126.808 287.441 126.413C277.224 125.278 268.043 123.255 264.958 121.38C262.317 119.777 260.368 117.901 259.084 115.952C256.74 112.375 256.616 108.6 258.368 105.886C259.701 103.838 261.207 101.889 263.058 100.286C267.451 96.5108 269.104 91.4776 272.016 86.6172C274.978 81.6582 278.852 76.6991 284.208 74.2072C284.232 74.2072 284.257 74.1825 284.282 74.1825C284.307 74.1825 284.331 74.1578 284.356 74.1578C285.072 73.8618 287.836 72.8009 290.156 72.1841C290.156 72.1841 290.156 72.1841 290.18 72.1841C290.254 72.1594 290.328 72.1347 290.402 72.1347C290.847 72.0114 291.266 71.9374 291.661 71.8633C291.957 71.814 292.229 71.7893 292.475 71.7647C292.969 71.74 293.339 71.7893 293.512 71.9867C293.561 72.036 293.586 72.1101 293.586 72.2087C293.586 72.2581 293.586 72.2828 293.586 72.3321C293.487 72.9736 292.451 73.9605 292.081 74.5279C290.575 76.8471 289.242 79.2896 288.132 81.8062C286.404 85.6797 285.146 89.8246 284.603 94.0189C284.208 97.2016 283.221 100.335 281.691 103.172C280.629 105.146 278.606 106.33 277.742 108.427C275.99 112.646 280.259 114.127 283.171 115.73C286.083 117.334 289.045 118.814 292.204 119.826C296.794 121.282 301.607 121.972 306.395 122.022C307.678 122.046 320.955 120.813 320.98 120.541Z" fill="#FCB713"/>
<g opacity="0.8">
<path opacity="0.8" d="M295.61 110.106C294.919 109.884 294.351 109.613 293.833 109.292C293.339 108.971 292.92 108.675 292.549 108.379C292.204 108.083 291.908 107.787 291.71 107.515C291.513 107.244 291.365 107.047 291.266 106.923C291.167 106.775 291.118 106.652 291.118 106.529C291.093 106.405 291.167 106.282 291.34 106.134L292.722 104.875C292.87 104.727 293.018 104.678 293.191 104.703C293.364 104.727 293.537 104.9 293.734 105.172C294.03 105.591 294.425 105.986 294.845 106.38C295.289 106.775 295.782 107.071 296.301 107.293L297.584 102.334C297.041 101.94 296.523 101.52 296.029 101.076C295.511 100.607 295.067 100.114 294.697 99.5463C294.326 98.9789 294.055 98.3621 293.907 97.6959C293.759 97.0051 293.783 96.2649 294.006 95.4014C294.154 94.7846 294.4 94.2418 294.746 93.7484C295.091 93.2549 295.511 92.8355 296.029 92.5148C296.548 92.194 297.165 91.972 297.88 91.8486C298.596 91.7253 299.386 91.7499 300.274 91.898L300.472 91.0838C300.496 90.9604 300.57 90.8371 300.694 90.7877C300.817 90.7137 300.94 90.7137 301.064 90.7384L301.385 90.8124C301.508 90.8371 301.632 90.9358 301.681 91.0345C301.755 91.1578 301.755 91.2812 301.73 91.4045L301.508 92.2434C302.051 92.4408 302.545 92.6628 303.014 92.9342C303.482 93.2056 303.877 93.477 304.223 93.7484C304.568 94.0198 304.84 94.2912 305.062 94.5132C305.284 94.7353 305.432 94.908 305.531 95.0313C305.654 95.1547 305.704 95.3027 305.679 95.4754C305.654 95.6481 305.58 95.7962 305.482 95.9195L304.075 97.1285C303.779 97.3752 303.532 97.3752 303.31 97.1531C303.014 96.8324 302.668 96.4623 302.248 96.0676C301.829 95.6728 301.335 95.3274 300.792 95.0313L299.583 99.6697C300.077 100.04 300.595 100.484 301.138 100.953C301.681 101.421 302.15 101.964 302.545 102.556C302.94 103.148 303.236 103.79 303.433 104.505C303.631 105.221 303.606 105.986 303.384 106.8C303.014 108.182 302.273 109.218 301.138 109.909C300.003 110.599 298.547 110.772 296.819 110.427L296.128 113.067C296.103 113.19 296.005 113.289 295.881 113.363C295.758 113.412 295.634 113.437 295.486 113.387C295.338 113.338 295.165 113.289 294.993 113.19C294.82 113.091 294.771 112.943 294.82 112.721L295.61 110.106ZM299.583 94.7106C298.917 94.6366 298.374 94.7106 297.979 94.982C297.559 95.2287 297.313 95.5988 297.165 96.0922C297.041 96.6103 297.09 97.0544 297.313 97.4739C297.559 97.8933 297.954 98.3374 298.497 98.8555L299.583 94.7106ZM297.609 107.688C298.201 107.762 298.719 107.713 299.164 107.491C299.608 107.269 299.904 106.899 300.052 106.306C300.175 105.813 300.151 105.32 299.953 104.801C299.756 104.283 299.361 103.765 298.769 103.222L297.609 107.688Z" fill="#FCB713"/>
</g>
<path opacity="0.8" d="M307.036 72.0367C306.666 71.3952 306.024 71.0498 305.309 71.0005C305.235 71.0005 305.161 71.0005 305.086 71.0005C304.395 71.0005 303.754 71.2966 303.137 71.6173C303.112 71.6173 303.112 71.5926 303.087 71.5926C302.939 71.5433 302.816 71.5186 302.693 71.5186C301.459 70.9018 299.879 70.8278 298.917 71.9874C298.818 72.1107 298.744 72.2341 298.67 72.3575C298.645 72.4068 298.621 72.4561 298.596 72.5055C298.398 72.9743 298.374 73.517 298.596 73.9858C298.892 74.652 299.534 75.1454 300.299 75.1454C300.866 75.1454 301.311 74.874 301.631 74.4546C301.533 74.874 301.409 75.2934 301.311 75.7129C301.039 76.7738 300.817 77.8593 300.644 78.9449C300.57 79.4877 300.472 80.0305 300.422 80.5733C300.397 80.8447 300.348 81.1161 300.323 81.4121C300.299 81.7329 300.299 82.0289 300.299 82.3497C300.299 82.8678 300.2 83.4106 300.175 83.9533C300.126 84.5455 300.126 85.1129 300.126 85.7051C300.126 86.0505 300.496 86.2725 300.792 86.2725C301.088 86.2725 301.434 86.0258 301.459 85.7051C301.508 85.1376 301.533 84.5948 301.582 84.0274C301.607 83.5092 301.607 82.9665 301.681 82.4483C301.705 82.3003 301.755 82.177 301.78 82.0536C301.804 81.9056 301.804 81.7822 301.829 81.6342C301.854 81.3628 301.878 81.0667 301.903 80.7953C301.952 80.2525 302.026 79.7097 302.1 79.167C302.248 78.0814 302.372 76.9711 302.52 75.8856C302.619 75.1701 302.742 74.4793 302.865 73.7884C303.038 74.3559 303.211 74.8987 303.359 75.4661C303.754 77.0452 304.001 78.6735 304.05 80.3019C304.099 81.8809 303.853 83.4846 303.68 85.0636C303.63 85.3843 303.853 85.6804 304.149 85.7791C304.445 85.8531 304.815 85.7051 304.914 85.409C305.259 84.3481 305.383 83.2379 305.457 82.1276C305.555 80.4006 305.407 78.6735 305.037 76.9711C304.84 76.0829 304.593 75.2194 304.247 74.3559C304.47 74.4546 304.692 74.5533 304.938 74.6273C305.432 74.7506 305.95 74.726 306.394 74.5039C306.592 74.4052 306.765 74.2819 306.913 74.1092C307.357 73.5664 307.406 72.6782 307.036 72.0367ZM304.494 72.4068C304.79 72.3821 305.062 72.4315 305.259 72.5055C305.309 72.5302 305.358 72.5548 305.407 72.5795C305.432 72.6042 305.457 72.6042 305.481 72.6288C305.481 72.6288 305.457 72.6288 305.432 72.6042C305.457 72.6288 305.506 72.6535 305.531 72.6782C305.481 72.6535 305.629 72.8262 305.605 72.7769C305.629 72.8016 305.629 72.8509 305.654 72.9002C305.654 72.9002 305.654 72.9249 305.654 72.9496C305.654 72.9496 305.654 73.0236 305.654 73.0483V73.0729C305.629 73.0729 305.605 73.0976 305.605 73.0976C305.605 73.0976 305.605 73.0976 305.629 73.0976C305.605 73.0976 305.555 73.0976 305.555 73.0976C305.531 73.0976 305.531 73.0976 305.531 73.0976H305.506C305.457 73.0976 305.383 73.0729 305.333 73.0729C305.309 73.0729 305.235 73.0483 305.235 73.0483C305.185 73.0236 305.136 73.0236 305.086 72.9989C304.988 72.9496 304.864 72.9002 304.766 72.8509C304.568 72.7275 304.371 72.6042 304.173 72.4561C304.247 72.4315 304.371 72.4068 304.494 72.4068Z" fill="#FCB713"/>
<g opacity="0.5">
<g opacity="0.6">
<g opacity="0.6">
<path opacity="0.6" d="M153.95 158.955C153.975 160.386 154.024 161.841 154.049 163.272L154.123 167.59C154.123 167.689 154.049 167.763 153.975 167.763C153.876 167.763 153.802 167.689 153.802 167.614L153.876 163.297C153.901 161.841 153.925 160.41 153.95 158.955Z" fill="#231F20"/>
<path opacity="0.6" d="M154.221 176.225L154.271 180.542L154.295 184.86C154.295 185.033 154.147 185.205 153.975 185.205C153.802 185.205 153.629 185.057 153.629 184.885L153.654 180.567L153.703 176.249C153.703 176.101 153.827 175.978 153.975 175.978C154.098 175.978 154.221 176.101 154.221 176.225Z" fill="#231F20"/>
<path opacity="0.6" d="M154.32 193.496C154.32 196.382 154.32 199.244 154.32 202.131C154.32 202.328 154.147 202.501 153.95 202.501C153.753 202.501 153.58 202.328 153.58 202.131C153.58 199.244 153.58 196.382 153.58 193.496C153.58 193.298 153.753 193.125 153.95 193.125C154.147 193.15 154.32 193.298 154.32 193.496Z" fill="#231F20"/>
<path opacity="0.6" d="M154.295 210.766L154.271 215.083L154.221 219.401C154.221 219.549 154.098 219.648 153.95 219.648C153.802 219.648 153.703 219.524 153.703 219.401L153.654 215.083L153.629 210.766C153.629 210.593 153.777 210.445 153.95 210.42C154.147 210.445 154.295 210.593 154.295 210.766Z" fill="#231F20"/>
<path opacity="0.6" d="M154.123 228.037L154.049 232.157C154.024 233.539 153.999 234.896 153.975 236.277C153.95 234.896 153.901 233.539 153.901 232.157L153.827 228.037C153.827 227.938 153.901 227.889 153.975 227.889C154.049 227.889 154.123 227.963 154.123 228.037Z" fill="#231F20"/>
</g>
</g>
<g opacity="0.6">
<g opacity="0.6">
<path opacity="0.6" d="M173.792 158.955C173.891 160.386 173.965 161.841 174.014 163.272C174.039 163.988 174.064 164.703 174.088 165.443C174.113 166.159 174.138 166.874 174.138 167.615C174.138 167.787 173.99 167.935 173.817 167.935C173.644 167.935 173.496 167.787 173.496 167.615C173.496 166.899 173.521 166.184 173.545 165.443C173.57 164.728 173.595 164.012 173.619 163.272C173.644 161.841 173.694 160.41 173.792 158.955Z" fill="#231F20"/>
<path opacity="0.6" d="M174.138 176.225L174.113 178.396L174.064 180.542C174.014 181.973 173.965 183.429 173.891 184.86C173.891 184.909 173.842 184.934 173.792 184.934C173.743 184.934 173.718 184.909 173.718 184.86C173.644 183.429 173.595 181.973 173.545 180.542L173.496 178.396L173.471 176.225C173.471 176.027 173.619 175.879 173.817 175.879C173.99 175.879 174.138 176.027 174.138 176.225Z" fill="#231F20"/>
</g>
</g>
<g opacity="0.6">
<g opacity="0.6">
<path opacity="0.6" d="M191.364 141.685C191.438 143.116 191.463 144.572 191.512 146.003C191.561 147.434 191.586 148.889 191.611 150.32C191.611 150.468 191.512 150.567 191.364 150.567C191.216 150.567 191.117 150.468 191.117 150.32C191.142 148.889 191.166 147.434 191.216 146.003C191.265 144.547 191.29 143.116 191.364 141.685Z" fill="#231F20"/>
<path opacity="0.6" d="M191.709 158.955L191.734 163.273V167.59C191.734 167.788 191.561 167.961 191.364 167.961C191.166 167.961 190.994 167.813 190.994 167.59V163.273L191.018 158.955C191.018 158.758 191.166 158.61 191.364 158.61C191.561 158.61 191.709 158.758 191.709 158.955Z" fill="#231F20"/>
<path opacity="0.6" d="M191.635 176.226C191.611 177.657 191.586 179.113 191.561 180.544L191.438 184.862C191.438 184.886 191.413 184.911 191.389 184.911C191.364 184.911 191.339 184.886 191.339 184.862L191.216 180.544C191.191 179.113 191.142 177.657 191.142 176.226C191.142 176.078 191.265 175.955 191.413 175.955C191.512 175.955 191.611 176.054 191.635 176.226Z" fill="#231F20"/>
</g>
</g>
<g opacity="0.6">
<g opacity="0.6">
<path opacity="0.6" d="M211.774 141.685L211.848 146.003L211.897 150.32C211.897 150.394 211.848 150.444 211.774 150.444C211.7 150.444 211.65 150.394 211.65 150.32L211.7 146.003L211.774 141.685Z" fill="#231F20"/>
<path opacity="0.6" d="M211.996 158.955L212.07 167.591C212.07 167.763 211.947 167.887 211.774 167.887C211.601 167.887 211.478 167.763 211.478 167.591L211.552 158.955C211.552 158.832 211.65 158.733 211.774 158.733C211.897 158.733 211.996 158.832 211.996 158.955Z" fill="#231F20"/>
<path opacity="0.6" d="M212.119 176.226L212.144 184.862C212.144 185.059 211.996 185.207 211.798 185.207C211.601 185.207 211.453 185.059 211.453 184.862L211.478 176.226C211.478 176.054 211.626 175.906 211.798 175.906C211.971 175.881 212.119 176.029 212.119 176.226Z" fill="#231F20"/>
<path opacity="0.6" d="M212.144 193.496L212.119 202.131C212.119 202.329 211.971 202.477 211.774 202.477C211.576 202.477 211.428 202.329 211.428 202.131L211.404 193.496C211.404 193.299 211.576 193.126 211.774 193.126C211.971 193.126 212.144 193.299 212.144 193.496Z" fill="#231F20"/>
<path opacity="0.6" d="M212.095 210.767L212.07 215.084L212.045 219.402C212.045 219.55 211.922 219.649 211.798 219.649C211.65 219.649 211.552 219.525 211.552 219.402L211.527 215.084L211.502 210.767C211.502 210.594 211.65 210.446 211.823 210.446C211.947 210.446 212.095 210.594 212.095 210.767Z" fill="#231F20"/>
<path opacity="0.6" d="M211.947 228.037L211.823 236.673C211.823 236.697 211.798 236.722 211.774 236.722C211.749 236.722 211.724 236.697 211.724 236.673L211.601 228.037C211.601 227.939 211.675 227.865 211.774 227.865C211.873 227.865 211.947 227.939 211.947 228.037Z" fill="#231F20"/>
</g>
</g>
<g opacity="0.6">
<g opacity="0.6">
<path opacity="0.6" d="M228.26 125.994C228.358 127.425 228.408 128.88 228.457 130.311C228.506 131.742 228.531 133.198 228.58 134.629C228.58 134.802 228.457 134.95 228.284 134.95C228.112 134.95 227.963 134.826 227.963 134.654C227.963 134.654 227.963 134.654 227.963 134.629C227.988 133.198 228.038 131.742 228.087 130.311C228.112 128.856 228.161 127.425 228.26 125.994Z" fill="#231F20"/>
<path opacity="0.6" d="M228.605 143.264C228.605 143.98 228.605 144.695 228.58 145.435L228.556 147.606L228.531 149.728C228.506 150.444 228.506 151.159 228.482 151.899C228.482 152.023 228.383 152.121 228.26 152.097C228.136 152.097 228.062 151.998 228.062 151.899C228.037 151.184 228.013 150.468 228.013 149.728L227.963 147.557L227.939 145.386C227.939 144.67 227.939 143.955 227.914 143.215C227.914 143.017 228.062 142.845 228.284 142.845C228.506 142.845 228.605 143.042 228.605 143.264C228.605 143.239 228.605 143.264 228.605 143.264Z" fill="#231F20"/>
</g>
</g>
</g>
<path opacity="0.3" d="M153.95 158.981C155.136 158.981 156.097 158.02 156.097 156.834C156.097 155.649 155.136 154.688 153.95 154.688C152.764 154.688 151.803 155.649 151.803 156.834C151.803 158.02 152.764 158.981 153.95 158.981Z" fill="#6457A4"/>
<path opacity="0.3" d="M173.792 158.981C174.978 158.981 175.939 158.02 175.939 156.834C175.939 155.649 174.978 154.688 173.792 154.688C172.606 154.688 171.645 155.649 171.645 156.834C171.645 158.02 172.606 158.981 173.792 158.981Z" fill="#6457A4"/>
<path opacity="0.3" d="M192.006 142.845C193.191 142.845 194.153 141.884 194.153 140.699C194.153 139.513 193.191 138.552 192.006 138.552C190.82 138.552 189.858 139.513 189.858 140.699C189.858 141.884 190.82 142.845 192.006 142.845Z" fill="#6457A4"/>
<path opacity="0.3" d="M211.848 142.845C213.034 142.845 213.995 141.884 213.995 140.699C213.995 139.513 213.034 138.552 211.848 138.552C210.662 138.552 209.701 139.513 209.701 140.699C209.701 141.884 210.662 142.845 211.848 142.845Z" fill="#6457A4"/>
<path opacity="0.3" d="M227.815 127.82C229.001 127.82 229.962 126.859 229.962 125.674C229.962 124.488 229.001 123.527 227.815 123.527C226.63 123.527 225.668 124.488 225.668 125.674C225.668 126.859 226.63 127.82 227.815 127.82Z" fill="#6457A4"/>
<path opacity="0.4" d="M243.61 118.667L227.815 125.673L211.848 140.699H192.006L173.792 156.834H153.95" stroke="#6457A4" stroke-width="5" stroke-miterlimit="10" stroke-linecap="round" stroke-linejoin="round"/>
<path opacity="0.4" d="M240.427 118.666H243.61L241.488 120.788" stroke="#6457A4" stroke-width="5" stroke-miterlimit="10" stroke-linecap="round" stroke-linejoin="round"/>
</g>
</svg>
