<svg width="49" height="49" viewBox="0 0 49 49" fill="none" xmlns="http://www.w3.org/2000/svg">
<path d="M1.5 7.5H21.5M47.5 7.5H27.5M1.5 33.5H21.5M47.5 33.5H27.5M21.5 17.5C21.5 19.7 19.7 21.5 17.5 21.5H5.5C3.3 21.5 1.5 19.7 1.5 17.5V5.5C1.5 3.3 3.3 1.5 5.5 1.5H17.5C19.7 1.5 21.5 3.3 21.5 5.5V17.5ZM27.5 17.5C27.5 19.7 29.3 21.5 31.5 21.5H43.5C45.7 21.5 47.5 19.7 47.5 17.5V5.5C47.5 3.3 45.7 1.5 43.5 1.5H31.5C29.3 1.5 27.5 3.3 27.5 5.5V17.5ZM21.5 43.5C21.5 45.7 19.7 47.5 17.5 47.5H5.5C3.3 47.5 1.5 45.7 1.5 43.5V31.5C1.5 29.3 3.3 27.5 5.5 27.5H17.5C19.7 27.5 21.5 29.3 21.5 31.5V43.5ZM27.5 43.5C27.5 45.7 29.3 47.5 31.5 47.5H43.5C45.7 47.5 47.5 45.7 47.5 43.5V31.5C47.5 29.3 45.7 27.5 43.5 27.5H31.5C29.3 27.5 27.5 29.3 27.5 31.5V43.5Z" stroke="black" stroke-miterlimit="10" stroke-linecap="round" stroke-linejoin="round"/>
</svg>
