<svg width="107" height="87" viewBox="0 0 107 87" fill="none" xmlns="http://www.w3.org/2000/svg">
<g clip-path="url(#clip0_1_1491)">
<path d="M0 42.7779L37.2681 21.8704L0.54907 0L0 42.7779ZM6.86338 11.2791L24.2964 21.664L6.58884 31.6364L6.86338 11.2791Z" fill="#6DED02"/>
<path d="M17.5695 77.0276L37.1987 86.9999L35.9633 64.992L17.5695 77.0276ZM19.148 76.9588L35.2083 66.4362L36.3065 85.6932L19.148 76.9588Z" fill="#6DED02"/>
<path d="M97.6662 43.8095L107 32.4616L92.5187 29.9857L97.6662 43.8095ZM97.8035 42.7778L93.3423 30.6735L105.971 32.8055L97.8035 42.7778Z" fill="#6DED02"/>
<path d="M55.8677 40.3708L55.1813 49.7242L54.4264 59.0088L62.8683 54.9511L71.2416 50.9621L55.8677 40.3708Z" fill="#6DED02"/>
<path d="M92.4489 78.8842L98.6259 85.7617L100.067 81.4289L101.509 77.0273L96.9787 77.9214L92.4489 78.8842Z" fill="#6DED02"/>
</g>
<defs>
<clipPath id="clip0_1_1491">
<rect width="107" height="87" fill="white"/>
</clipPath>
</defs>
</svg>
